<svg width="18" height="21" viewBox="0 0 18 21" fill="none" xmlns="http://www.w3.org/2000/svg">
<path d="M14.04 2.32368e-10H4.68C4.20278 0.000521086 3.74525 0.185063 3.4078 0.513139C3.07035 0.841214 2.88054 1.28603 2.88 1.75V2.8H1.8C1.32277 2.80052 0.865249 2.98506 0.5278 3.31314C0.19035 3.64121 0.000535974 4.08603 0 4.55V19.25C0.000535974 19.714 0.19035 20.1588 0.5278 20.4869C0.865249 20.8149 1.32277 20.9995 1.8 21H13.32C13.7972 20.9995 14.2548 20.8149 14.5922 20.4869C14.9297 20.1588 15.1195 19.714 15.12 19.25V18.2H16.2C16.6772 18.1995 17.1348 18.0149 17.4722 17.6869C17.8097 17.3588 17.9995 16.914 18 16.45V3.85C18 3.80404 17.9907 3.75852 17.9726 3.71606C17.9545 3.67359 17.928 3.63501 17.8946 3.60251L14.2946 0.102506C14.2611 0.0700062 14.2214 0.044226 14.1778 0.026638C14.1341 0.00904989 14.0873 -1.67455e-06 14.04 2.32368e-10ZM14.4 19.25C14.3997 19.5284 14.2858 19.7953 14.0833 19.9921C13.8809 20.189 13.6063 20.2997 13.32 20.3H1.8C1.51366 20.2997 1.23915 20.189 1.03668 19.9921C0.83421 19.7953 0.720322 19.5284 0.72 19.25V4.55C0.720322 4.27162 0.83421 4.00473 1.03668 3.80788C1.23915 3.61104 1.51366 3.50031 1.8 3.5H10.8V5.25C10.8005 5.71397 10.9904 6.15879 11.3278 6.48686C11.6652 6.81494 12.1228 6.99948 12.6 7H14.4V19.25ZM11.52 5.25V3.99494L13.8909 6.3H12.6C12.3137 6.29969 12.0391 6.18896 11.8367 5.99212C11.6342 5.79527 11.5203 5.52838 11.52 5.25ZM17.28 16.45C17.2797 16.7284 17.1658 16.9953 16.9633 17.1921C16.7609 17.389 16.4863 17.4997 16.2 17.5H15.12V6.65C15.12 6.60404 15.1107 6.55852 15.0926 6.51606C15.0745 6.47359 15.048 6.43501 15.0146 6.40251L11.4146 2.90251C11.3811 2.87001 11.3414 2.84423 11.2978 2.82664C11.2541 2.80905 11.2073 2.8 11.16 2.8H3.6V1.75C3.60032 1.47162 3.71421 1.20473 3.91668 1.00788C4.11915 0.811038 4.39366 0.700313 4.68 0.7H13.68V2.45C13.6805 2.91397 13.8704 3.35879 14.2078 3.68686C14.5452 4.01494 15.0028 4.19948 15.48 4.2H17.28V16.45ZM14.4 1.19494L16.7709 3.5H15.48C15.1937 3.49969 14.9191 3.38896 14.7167 3.19212C14.5142 2.99527 14.4003 2.72838 14.4 2.45V1.19494Z" fill="#242154"/>
<path d="M6.35 8C6.25717 8 6.16815 8.05268 6.10251 8.14645C6.03687 8.24021 6 8.36739 6 8.5C6 8.63261 6.03687 8.75979 6.10251 8.85355C6.16815 8.94732 6.25717 9 6.35 9H12.65C12.7428 9 12.8318 8.94732 12.8975 8.85355C12.9631 8.75979 13 8.63261 13 8.5C13 8.36739 12.9631 8.24021 12.8975 8.14645C12.8318 8.05268 12.7428 8 12.65 8H6.35Z" fill="#242154"/>
<path d="M12.6429 13H8.35714C8.26242 13 8.17158 13.0527 8.1046 13.1464C8.03763 13.2402 8 13.3674 8 13.5C8 13.6326 8.03763 13.7598 8.1046 13.8536C8.17158 13.9473 8.26242 14 8.35714 14H12.6429C12.7376 14 12.8284 13.9473 12.8954 13.8536C12.9624 13.7598 13 13.6326 13 13.5C13 13.3674 12.9624 13.2402 12.8954 13.1464C12.8284 13.0527 12.7376 13 12.6429 13Z" fill="#242154"/>
<path d="M2.375 9H4.625C4.72446 9 4.81984 8.94732 4.89017 8.85355C4.96049 8.75979 5 8.63261 5 8.5C5 8.36739 4.96049 8.24021 4.89017 8.14645C4.81984 8.05268 4.72446 8 4.625 8H2.375C2.27554 8 2.18016 8.05268 2.10984 8.14645C2.03951 8.24021 2 8.36739 2 8.5C2 8.63261 2.03951 8.75979 2.10984 8.85355C2.18016 8.94732 2.27554 9 2.375 9Z" fill="#242154"/>
<path d="M2.42857 17H7.57143C7.68509 17 7.7941 16.9473 7.87447 16.8536C7.95485 16.7598 8 16.6326 8 16.5C8 16.3674 7.95485 16.2402 7.87447 16.1464C7.7941 16.0527 7.68509 16 7.57143 16H2.42857C2.31491 16 2.2059 16.0527 2.12553 16.1464C2.04515 16.2402 2 16.3674 2 16.5C2 16.6326 2.04515 16.7598 2.12553 16.8536C2.2059 16.9473 2.31491 17 2.42857 17Z" fill="#242154"/>
<path d="M2.42857 7H7.57143C7.68509 7 7.7941 6.94732 7.87447 6.85355C7.95485 6.75979 8 6.63261 8 6.5C8 6.36739 7.95485 6.24021 7.87447 6.14645C7.7941 6.05268 7.68509 6 7.57143 6H2.42857C2.31491 6 2.2059 6.05268 2.12553 6.14645C2.04515 6.24021 2 6.36739 2 6.5C2 6.63261 2.04515 6.75979 2.12553 6.85355C2.2059 6.94732 2.31491 7 2.42857 7Z" fill="#242154"/>
</svg>
