<svg width="20" height="23" viewBox="0 0 20 23" fill="none" xmlns="http://www.w3.org/2000/svg">
<g clip-path="url(#clip0)">
<path d="M19.5808 17.9245C19.2217 18.7281 18.7967 19.4677 18.3042 20.1478C17.6329 21.0749 17.0833 21.7166 16.6598 22.0729C16.0032 22.6578 15.2997 22.9574 14.5463 22.9744C14.0055 22.9744 13.3533 22.8254 12.5941 22.523C11.8324 22.222 11.1325 22.0729 10.4924 22.0729C9.82116 22.0729 9.10125 22.222 8.33121 22.523C7.55999 22.8254 6.93871 22.983 6.4637 22.9986C5.7413 23.0284 5.02124 22.7203 4.30249 22.0729C3.84375 21.6853 3.26996 21.0209 2.58258 20.0796C1.84508 19.0745 1.23875 17.9089 0.763738 16.5801C0.255019 15.1447 0 13.7548 0 12.4092C0 10.8678 0.343836 9.53843 1.03253 8.42438C1.57379 7.52954 2.29385 6.82366 3.19507 6.30546C4.09628 5.78727 5.07004 5.5232 6.1187 5.50631C6.69249 5.50631 7.44494 5.67823 8.38001 6.01612C9.31244 6.35515 9.91115 6.52708 10.1736 6.52708C10.3699 6.52708 11.035 6.32605 12.1625 5.92526C13.2287 5.55358 14.1286 5.39968 14.8658 5.46031C16.8635 5.61648 18.3643 6.37929 19.3624 7.75357C17.5758 8.80217 16.692 10.2709 16.7096 12.155C16.7257 13.6225 17.2753 14.8437 18.3555 15.8134C18.845 16.2635 19.3917 16.6113 19.9999 16.8583C19.868 17.2289 19.7288 17.5838 19.5808 17.9245ZM14.9992 0.46065C14.9992 1.61091 14.5654 2.68491 13.7007 3.67899C12.6571 4.86076 11.395 5.54364 10.0262 5.43589C10.0088 5.29789 9.99865 5.15266 9.99865 5.00004C9.99865 3.89578 10.4949 2.71402 11.3762 1.74776C11.8162 1.25853 12.3757 0.851738 13.0543 0.527234C13.7315 0.207572 14.3719 0.0307916 14.9743 0.000518799C14.9919 0.154291 14.9992 0.308073 14.9992 0.460635V0.46065Z" fill="#242154"/>
</g>
<defs>
<clipPath id="clip0">
<rect width="20" height="23" fill="white"/>
</clipPath>
</defs>
</svg>
