<svg width="18" height="22" viewBox="0 0 18 22" fill="none" xmlns="http://www.w3.org/2000/svg">
<path d="M6.32362 7.77272C6.60114 7.77272 6.82605 7.99763 6.82605 8.27515V17.771C6.82605 18.0483 6.60114 18.2734 6.32362 18.2734C6.04611 18.2734 5.8212 18.0483 5.8212 17.771V8.27515C5.8212 7.99763 6.04611 7.77272 6.32362 7.77272Z" fill="#242154"/>
<path d="M12.2523 7.77272C12.5298 7.77272 12.7548 7.99763 12.7548 8.27515V17.771C12.7548 18.0483 12.5298 18.2734 12.2523 18.2734C11.9748 18.2734 11.7499 18.0483 11.7499 17.771V8.27515C11.7499 7.99763 11.9748 7.77272 12.2523 7.77272Z" fill="#242154"/>
<path d="M16.573 6.38693V18.7656C16.573 19.4972 16.3047 20.1843 15.8361 20.6773C15.3696 21.1717 14.7203 21.4524 14.0409 21.4536H4.53489C3.85524 21.4524 3.20602 21.1717 2.7397 20.6773C2.27104 20.1843 2.00275 19.4972 2.00275 18.7656V6.38693C1.07111 6.13964 0.467415 5.2396 0.592039 4.28362C0.71686 3.32784 1.53114 2.61286 2.49517 2.61267H5.06753V1.98464C5.06459 1.45651 5.27341 0.949372 5.64729 0.576283C6.02116 0.203391 6.52908 -0.00425169 7.05721 6.60143e-05H11.5186C12.0467 -0.00425169 12.5546 0.203391 12.9285 0.576283C13.3024 0.949372 13.5112 1.45651 13.5083 1.98464V2.61267H16.0806C17.0446 2.61286 17.8589 3.32784 17.9837 4.28362C18.1084 5.2396 17.5047 6.13964 16.573 6.38693ZM4.53489 20.4487H14.0409C14.8999 20.4487 15.5682 19.7108 15.5682 18.7656V6.43109H3.0076V18.7656C3.0076 19.7108 3.67586 20.4487 4.53489 20.4487ZM12.5034 1.98464C12.5067 1.72303 12.4039 1.47123 12.2182 1.28655C12.0328 1.10187 11.7804 1.0004 11.5186 1.00491H7.05721C6.7954 1.0004 6.54301 1.10187 6.35755 1.28655C6.17189 1.47103 6.06905 1.72303 6.07238 1.98464V2.61267H12.5034V1.98464ZM16.0806 3.61752H2.49517C1.99569 3.61752 1.5908 4.0224 1.5908 4.52188C1.5908 5.02136 1.99569 5.42624 2.49517 5.42624H16.0806C16.5801 5.42624 16.985 5.02136 16.985 4.52188C16.985 4.0224 16.5801 3.61752 16.0806 3.61752Z" fill="#242154"/>
<path d="M9.28798 7.77272C9.56549 7.77272 9.79041 7.99763 9.79041 8.27515V17.771C9.79041 18.0483 9.56549 18.2734 9.28798 18.2734C9.01047 18.2734 8.78556 18.0483 8.78556 17.771V8.27515C8.78556 7.99763 9.01047 7.77272 9.28798 7.77272Z" fill="#242154"/>
</svg>
