<svg width="20" height="19" viewBox="0 0 20 19" fill="none" xmlns="http://www.w3.org/2000/svg">
<path d="M12.998 0L6.99805 0.00390625L5.16406 2H2C0.9 2 0 2.9 0 4V16C0 17.1 0.9 18 2 18H9.68359C9.25059 17.09 9 16.075 9 15C9 14.966 9.00586 14.9334 9.00586 14.9004C6.72186 14.4384 5 12.42 5 10C5 7.239 7.239 5 10 5C12.101 5 13.8928 6.29972 14.6328 8.13672C15.0758 8.04872 15.532 8 16 8C17.488 8 18.866 8.46777 20 9.25977V4C20 2.9 19.1 2 18 2H14.8438L12.998 0ZM10 7C8.343 7 7 8.343 7 10C7 11.421 7.99041 12.6041 9.31641 12.9141C9.87241 11.1321 11.121 9.65969 12.748 8.80469C12.285 7.74369 11.231 7 10 7Z" fill="#242154"/>
<path d="M12 12.4141L13.4141 11L15.5352 13.1211L17.6562 11L19.0703 12.4141L16.9492 14.5352L19.0703 16.6562L17.6562 18.0703L15.5352 15.9492L13.4141 18.0703L12 16.6562L14.1211 14.5352L12 12.4141Z" fill="#242154"/>
</svg>
