<svg width="214" height="189" viewBox="0 0 214 189" fill="none" xmlns="http://www.w3.org/2000/svg">
<g clip-path="url(#clip0)">
<path d="M181.307 70.2907C171.13 30.1634 135.964 1.19717 94.6878 0.0353596C72.8661 -0.578853 49.9036 6.678 33.1852 32.0724C3.29925 77.4675 35.0217 108.837 57.1378 123.743C67.8226 130.959 77.4501 139.636 85.7416 149.522C100.68 167.297 129.419 189.385 163.645 154.776C188.453 129.692 188.086 97.0194 181.307 70.2907Z" fill="#D3D3D3"/>
<path d="M106.973 177.684C166.053 177.684 213.947 175.257 213.947 172.262C213.947 169.268 166.053 166.84 106.973 166.84C47.8937 166.84 0 169.268 0 172.262C0 175.257 47.8937 177.684 106.973 177.684Z" fill="#3F3D56"/>
<path d="M172.141 183.342C195.259 183.342 214 182.392 214 181.22C214 180.049 195.259 179.099 172.141 179.099C149.023 179.099 130.282 180.049 130.282 181.22C130.282 182.392 149.023 183.342 172.141 183.342Z" fill="#3F3D56"/>
<path d="M93.1153 189C116.233 189 134.974 188.05 134.974 186.878C134.974 185.707 116.233 184.757 93.1153 184.757C69.9971 184.757 51.2561 185.707 51.2561 186.878C51.2561 188.05 69.9971 189 93.1153 189Z" fill="#3F3D56"/>
<path d="M160.197 82.5488C160.197 82.5488 167.308 82.4447 165.793 84.5888C164.278 86.7329 158.4 86.5831 158.4 86.5831L160.197 82.5488Z" fill="#FFB9B9"/>
<path d="M138.323 56.1092L145.519 65.9062L151.741 73.3597C151.741 73.3597 158.188 80.1026 158.907 81.0352C159.626 81.9677 161.738 81.701 161.289 83.1222C160.839 84.5434 160.168 86.9109 159.466 87.1569C158.764 87.403 155.466 86.9797 155.224 86.5117C154.982 86.0437 139.572 77.31 134.072 71.0248L128.838 67.4627L128.76 61.436L138.323 56.1092Z" fill="#6C63FF"/>
<path d="M138.323 56.1092L145.519 65.9062L151.741 73.3597C151.741 73.3597 158.188 80.1026 158.907 81.0352C159.626 81.9677 161.738 81.701 161.289 83.1222C160.839 84.5434 160.168 86.9109 159.466 87.1569C158.764 87.403 155.466 86.9797 155.224 86.5117C154.982 86.0437 139.572 77.31 134.072 71.0248L128.838 67.4627L128.76 61.436L138.323 56.1092Z" fill="#FF6584"/>
<path opacity="0.1" d="M138.323 56.1092L145.519 65.9062L151.741 73.3597C151.741 73.3597 158.188 80.1026 158.907 81.0352C159.626 81.9677 161.738 81.701 161.289 83.1222C160.839 84.5434 160.168 86.9109 159.466 87.1569C158.764 87.403 155.466 86.9797 155.224 86.5117C154.982 86.0437 139.572 77.31 134.072 71.0248L128.838 67.4627L128.76 61.436L138.323 56.1092Z" fill="black"/>
<path d="M141.299 51.5622L142.795 55.0984H144.12L142.239 46.1402C142.239 40.3902 139.472 35.5318 133.737 35.5318H133.737C131.814 35.5318 129.97 36.2977 128.611 37.661C127.251 39.0242 126.487 40.8733 126.487 42.8012V51.5868C126.487 52.5182 126.856 53.4113 127.513 54.0699C128.17 54.7284 129.061 55.0984 129.989 55.0984H140.27L141.299 51.5622Z" fill="#2F2E41"/>
<path d="M116.966 141.969C116.966 141.969 114.85 144.798 114.85 145.506C114.85 146.213 113.674 146.449 112.969 147.156C112.263 147.863 111.558 147.627 112.028 148.334C112.499 149.042 106.151 153.285 106.151 153.285L100.038 161.3L101.684 162.715L106.386 157.764L105.68 166.487L112.263 172.616C112.263 172.616 115.085 173.087 115.32 172.616C115.555 172.144 112.969 167.43 112.969 167.43C112.969 167.43 113.204 163.186 114.614 161.536C115.489 160.504 116.276 159.4 116.966 158.236C116.966 158.236 116.26 157.293 117.906 157.057C119.552 156.821 118.376 155.407 118.376 155.407C118.376 155.407 118.846 155.171 120.257 155.171C121.668 155.171 128.016 148.334 128.016 148.334L116.966 141.969Z" fill="#2F2E41"/>
<path d="M143.297 149.277C143.297 149.277 142.357 152.578 144.003 154.464C145.649 156.35 144.003 155.878 144.003 155.878C144.003 155.878 144.238 157.293 143.297 158C142.357 158.707 142.357 160.122 142.357 160.122C142.357 160.122 141.182 162.479 141.417 163.893C141.652 165.308 141.652 172.38 141.652 172.38H144.003V166.251L148.705 172.38H160.46C160.46 172.38 160.225 171.201 159.05 170.966C157.874 170.73 154.347 170.966 153.642 166.015C153.642 166.015 153.407 163.186 152.937 162.715C152.467 162.243 151.996 160.593 152.467 159.414C152.937 158.236 152.467 157.764 153.172 157.293C153.877 156.821 154.112 155.407 153.642 154.699C153.172 153.992 151.761 152.814 153.407 152.106C155.053 151.399 155.053 147.863 155.053 147.863L143.297 149.277Z" fill="#2F2E41"/>
<path d="M127.78 92.6992C127.78 92.6992 125.194 94.8209 128.486 103.543C131.777 112.266 133.188 123.582 133.188 123.582C133.188 123.582 129.896 126.41 129.896 127.825C129.896 129.239 115.32 138.198 116.26 142.205C117.201 146.213 134.363 153.757 136.009 153.285C137.655 152.814 145.649 130.182 145.649 130.182C145.649 130.182 142.592 105.194 142.357 104.958C142.122 104.722 135.069 93.1707 135.069 93.1707L130.837 84.4483L127.78 92.6992Z" fill="#2F2E41"/>
<path opacity="0.1" d="M127.78 92.6992C127.78 92.6992 125.194 94.8209 128.486 103.543C131.777 112.266 133.188 123.582 133.188 123.582C133.188 123.582 129.896 126.41 129.896 127.825C129.896 129.239 115.32 138.198 116.26 142.205C117.201 146.213 134.363 153.757 136.009 153.285C137.655 152.814 145.649 130.182 145.649 130.182C145.649 130.182 142.592 105.194 142.357 104.958C142.122 104.722 135.069 93.1707 135.069 93.1707L130.837 84.4483L127.78 92.6992Z" fill="black"/>
<path d="M127.545 87.2772C127.545 87.2772 125.664 94.1137 130.132 101.186C134.599 108.258 139.771 122.874 139.771 122.874C139.771 122.874 144.708 138.198 142.592 149.277C142.592 149.277 141.887 150.692 143.768 150.692C145.649 150.692 165.398 150.22 163.752 145.27C162.106 140.319 154.818 117.216 154.818 117.216L145.413 93.878L144.943 86.8057L141.417 81.3836H134.128L127.545 87.2772Z" fill="#2F2E41"/>
<path d="M94.656 94.3494C94.656 94.3494 87.5442 94.3494 89.0902 96.4711C90.6363 98.5928 96.5113 98.3571 96.5113 98.3571L94.656 94.3494Z" fill="#FFB9B9"/>
<path d="M131.895 45.6687C131.895 45.6687 132.365 48.9691 130.719 49.4405C129.074 49.912 137.302 53.4482 137.302 53.4482C137.302 53.4482 138.948 47.7904 139.653 47.0831C140.359 46.3759 131.895 45.6687 131.895 45.6687Z" fill="#FFB9B9"/>
<path opacity="0.1" d="M131.895 45.6687C131.895 45.6687 132.365 48.9691 130.719 49.4405C129.074 49.912 137.302 53.4482 137.302 53.4482C137.302 53.4482 138.948 47.7904 139.653 47.0831C140.359 46.3759 131.895 45.6687 131.895 45.6687Z" fill="black"/>
<path d="M138.478 51.0907C138.478 51.0907 131.189 48.9691 130.954 48.2618C130.719 47.5546 129.074 49.2048 128.368 50.3835C127.663 51.5622 126.252 52.9767 125.547 52.9767C124.842 52.9767 119.669 56.0413 118.494 61.4634C117.956 63.9455 117.171 65.3901 116.479 66.227C115.958 66.9106 115.642 67.7281 115.566 68.5848C115.562 68.6244 115.549 68.6624 115.526 68.6951C115.504 68.7278 115.473 68.7541 115.437 68.7714C114.967 69.0072 125.312 78.9083 125.312 78.9083C125.312 78.9083 129.309 77.9654 130.014 78.9083C130.719 79.8513 129.544 81.5015 128.838 82.4445C128.133 83.3874 126.487 88.1023 127.428 88.8095C128.368 89.5167 133.305 82.4445 136.127 83.8589C138.948 85.2734 141.769 84.0947 141.769 84.0947C141.769 84.0947 142.945 87.8665 144.826 87.8665C146.706 87.8665 147.177 84.8019 146.471 83.8589C145.766 82.916 142.945 81.03 144.355 78.4368C145.766 75.8437 146.236 71.1288 146.236 71.1288C146.236 71.1288 149.998 66.6497 143.18 61.2277C143.18 61.2277 140.829 54.6269 140.124 54.1554C139.418 53.6839 138.243 53.4482 138.243 52.9767C138.243 52.5052 138.478 51.0907 138.478 51.0907Z" fill="#FF6584"/>
<path d="M116.143 67.5927L109.089 77.4939L102.977 85.0376C102.977 85.0376 96.6288 91.8742 95.9235 92.8171C95.2182 93.7601 93.1022 93.5244 93.5724 94.9388C94.0426 96.3533 94.748 98.7107 95.4533 98.9464C96.1586 99.1822 99.4501 98.7107 99.6852 98.2392C99.9203 97.7677 115.202 88.8095 120.61 82.4445L125.791 78.8062L125.782 72.779L116.143 67.5927Z" fill="#FF6584"/>
<path d="M130.388 79.1623L144.016 79.5984C144.17 79.603 144.316 79.6675 144.423 79.7782C144.531 79.8889 144.591 80.0372 144.591 80.1915V80.4095C144.591 80.4896 144.574 80.569 144.543 80.6427C144.512 80.7164 144.466 80.7829 144.408 80.8383C144.35 80.8937 144.282 80.9368 144.207 80.965C144.132 80.9932 144.052 81.0058 143.972 81.0023L130.344 80.3482C130.192 80.3413 130.048 80.2759 129.943 80.1655C129.838 80.0551 129.779 79.9082 129.779 79.7554C129.779 79.676 129.795 79.5974 129.826 79.5242C129.856 79.4511 129.902 79.3849 129.958 79.3296C130.015 79.2743 130.083 79.231 130.156 79.2023C130.23 79.1735 130.309 79.1599 130.388 79.1623Z" fill="#2F2E41"/>
<path d="M144.355 81.7372C144.485 81.7372 144.591 81.1567 144.591 80.4407C144.591 79.7246 144.485 79.1441 144.355 79.1441C144.226 79.1441 144.12 79.7246 144.12 80.4407C144.12 81.1567 144.226 81.7372 144.355 81.7372Z" fill="#2F2E41"/>
<path d="M136.597 49.4406C140.233 49.4406 143.18 46.4853 143.18 42.8398C143.18 39.1943 140.233 36.239 136.597 36.239C132.961 36.239 130.014 39.1943 130.014 42.8398C130.014 46.4853 132.961 49.4406 136.597 49.4406Z" fill="#FFB9B9"/>
<path d="M139.348 35.847C138.073 35.5228 135.048 35.5317 134.606 35.5317C133.54 35.5317 132.484 35.7423 131.499 36.1514C130.514 36.5605 129.619 37.1601 128.865 37.916C128.111 38.672 127.513 39.5694 127.105 40.557C126.697 41.5447 126.487 42.6032 126.487 43.6723L123.431 55.0984H129.38L130.484 50.855L132.052 55.0984H135.046L135.304 52.5484L136.317 55.0984H139.653C137.155 49.4301 135.826 44.2635 139.108 41.0745C141.325 41.3773 143.194 40.782 143.499 39.5771C143.85 38.1888 141.992 36.5188 139.348 35.847Z" fill="#2F2E41"/>
<path d="M6.13227 88.7169C5.55332 88.7192 4.98401 88.5684 4.48167 88.2798C3.97934 87.9912 3.56172 87.575 3.2709 87.073C2.98007 86.5711 2.8263 86.0011 2.82509 85.4206C2.82387 84.8401 2.97525 84.2695 3.26397 83.7663C7.44887 76.6941 20.1681 60.1685 47.9577 60.1685C59.9952 60.1685 70.5515 63.3746 79.3209 69.6925C86.5387 74.8789 90.5826 80.7488 92.5104 83.5778C92.7549 83.9346 92.9264 84.3365 93.015 84.7602C93.1036 85.184 93.1076 85.6211 93.0267 86.0464C92.9458 86.4716 92.7816 86.8766 92.5437 87.2379C92.3058 87.5992 91.9988 87.9096 91.6405 88.1512C90.9118 88.6408 90.0204 88.8238 89.1585 88.6606C88.2965 88.4975 87.533 88.0012 87.0324 87.2789C83.5294 82.1869 72.9025 66.7222 47.9577 66.7222C23.6007 66.7222 12.5977 80.961 9.00057 87.0667C8.71387 87.5743 8.29637 87.9953 7.79176 88.2856C7.28715 88.5759 6.71399 88.7249 6.13227 88.7169V88.7169Z" fill="#242154"/>
<path d="M61.9466 153.405C61.6694 153.408 61.3929 153.376 61.1237 153.31C40.9751 148.242 33.4517 127.827 33.146 126.978L33.099 126.789C32.9344 126.2 28.8906 112.197 35.0974 103.993C37.9422 100.245 42.2682 98.3352 47.9813 98.3352C53.2947 98.3352 57.1269 100.009 59.7601 103.474C61.9231 106.303 62.793 109.792 63.6394 113.163C65.4027 120.165 66.6722 123.843 74.0076 124.22C77.2285 124.385 79.3445 122.475 80.5435 120.849C83.788 116.417 84.3523 109.179 81.9071 102.814C78.7567 94.5633 67.6127 79.0279 47.9577 79.0279C39.5644 79.0279 31.8529 81.7625 25.6696 86.9017C20.5443 91.1687 16.477 97.1801 14.5256 103.357C10.9049 114.861 15.6541 132.942 15.7011 133.107C15.8116 133.525 15.8384 133.961 15.7798 134.389C15.7212 134.818 15.5784 135.23 15.3598 135.603C15.1411 135.976 14.8509 136.301 14.5059 136.561C14.161 136.82 13.7681 137.009 13.3501 137.115C12.5023 137.339 11.6005 137.22 10.8395 136.783C10.0785 136.347 9.51929 135.628 9.28271 134.781C9.07111 133.956 3.99281 114.672 8.1777 101.376C12.7388 86.9724 26.7981 72.4507 47.9577 72.4507C57.7382 72.4507 66.9779 75.8218 74.6894 82.1869C80.6611 87.1375 85.5513 93.7854 88.0905 100.433C91.3349 108.92 90.465 118.444 85.8804 124.668C82.8241 128.817 78.4746 130.986 73.6549 130.75C61.1002 130.113 58.8432 121.226 57.1974 114.743C55.5047 108.095 54.4232 104.889 47.9577 104.889C44.4076 104.889 41.9155 105.879 40.3638 107.93C38.2478 110.735 38.0833 115.12 38.3184 118.303C38.3207 118.336 38.3231 118.369 38.3256 118.402C38.6366 122.451 39.8593 126.376 41.9016 129.883C45.1654 135.526 51.7857 144.18 62.7695 146.945C63.1889 147.047 63.584 147.231 63.932 147.487C64.28 147.743 64.574 148.065 64.797 148.436C65.02 148.806 65.1675 149.217 65.2311 149.645C65.2947 150.073 65.2731 150.51 65.1675 150.929C64.9765 151.639 64.5576 152.267 63.9753 152.714C63.3931 153.162 62.6801 153.404 61.9466 153.405V153.405Z" fill="#242154"/>
<path d="M36.0848 151.896C35.6322 151.896 35.1843 151.804 34.7681 151.626C34.3518 151.448 33.976 151.187 33.6633 150.859C25.5991 142.278 21.038 132.683 19.3218 120.684V120.613C18.3578 112.668 19.7685 101.423 26.6806 93.6911C31.7824 87.9861 38.9531 85.0865 47.9577 85.0865C58.6081 85.0865 66.9779 90.1078 72.1972 99.5847C74.556 103.943 76.1017 108.696 76.7583 113.611C76.8358 114.483 76.5679 115.35 76.0127 116.025C75.4574 116.701 74.6594 117.13 73.7912 117.219C72.9231 117.309 72.0545 117.053 71.3734 116.506C70.6924 115.958 70.2535 115.164 70.1518 114.295C69.5799 110.186 68.2653 106.215 66.2725 102.579C62.2287 95.3413 56.0689 91.6637 47.9342 91.6637C40.9045 91.6637 35.403 93.809 31.6178 98.0523C26.1634 104.158 25.1054 113.564 25.8577 119.788C27.3624 130.396 31.3827 138.836 38.4829 146.38C38.7794 146.694 39.0105 147.064 39.1629 147.468C39.3152 147.873 39.3858 148.304 39.3705 148.736C39.3552 149.168 39.2543 149.593 39.0736 149.986C38.893 150.379 38.6363 150.731 38.3184 151.024C37.7074 151.582 36.9114 151.893 36.0848 151.896V151.896Z" fill="#242154"/>
<path d="M48.0048 121.108C50.342 121.108 52.2367 119.208 52.2367 116.865C52.2367 114.521 50.342 112.621 48.0048 112.621C45.6675 112.621 43.7728 114.521 43.7728 116.865C43.7728 119.208 45.6675 121.108 48.0048 121.108Z" fill="#242154"/>
</g>
<defs>
<clipPath id="clip0">
<rect width="214" height="189" fill="white"/>
</clipPath>
</defs>
</svg>
