<svg width="19" height="19" viewBox="0 0 19 19" fill="none" xmlns="http://www.w3.org/2000/svg">
<g clip-path="url(#clip0)">
<path d="M19 9.71821C19 9.07243 18.9466 8.42315 18.8326 7.78784H9.69052V11.4461H14.9258C14.7085 12.626 14.0105 13.6697 12.9884 14.3329V16.7066H16.1117C17.9458 15.052 19 12.6085 19 9.71821Z" fill="#242154"/>
<path d="M9.69051 19C12.3046 19 14.5091 18.1587 16.1152 16.7066L12.9919 14.3329C12.1229 14.9124 11.0011 15.2405 9.69408 15.2405C7.1655 15.2405 5.02155 13.5684 4.25229 11.3204H1.02924V13.7674C2.6746 16.9754 6.02586 19 9.69051 19Z" fill="#242154"/>
<path d="M4.24874 11.3204C3.84274 10.1405 3.84274 8.86294 4.24874 7.68308V5.23608H1.02924C-0.345456 7.92045 -0.345456 11.083 1.02924 13.7674L4.24874 11.3204Z" fill="#242154"/>
<path d="M9.69051 3.75951C11.0723 3.73856 12.4078 4.24821 13.4086 5.18372L16.1758 2.47143C14.4236 0.858717 12.098 -0.0279265 9.69051 -6.75151e-07C6.02585 -6.75151e-07 2.6746 2.02462 1.02924 5.23608L4.24873 7.68308C5.01442 5.43156 7.16193 3.75951 9.69051 3.75951Z" fill="#242154"/>
</g>
<defs>
<clipPath id="clip0">
<rect width="19" height="19" fill="white"/>
</clipPath>
</defs>
</svg>
