<svg width="117" height="91" viewBox="0 0 117 91" fill="none" xmlns="http://www.w3.org/2000/svg">
<path d="M101.468 73.6183C101.185 71.404 102.069 69.1246 101.544 66.9567C101.14 65.2821 99.9423 63.884 99.5488 62.2064C98.9706 59.7202 100.293 57.1668 101.981 55.2578C103.142 53.942 104.598 52.7479 106.335 52.5089C107.407 52.3561 108.509 52.5921 109.499 53.0297C110.506 53.4816 111.409 54.1364 112.151 54.9532C112.894 55.77 113.46 56.7312 113.816 57.777C114.044 58.4566 114.176 59.1675 114.458 59.8265C114.942 60.9617 115.831 61.8776 116.383 62.9824C116.752 63.7309 116.96 64.5483 116.995 65.3821C117.029 66.2159 116.89 67.0478 116.584 67.8243C115.944 69.4232 114.601 70.761 114.403 72.4722C114.259 73.7054 114.721 75.0562 114.121 76.1428C113.668 76.9628 112.735 77.3767 111.852 77.6868C109.8 78.4015 106.927 79.5621 104.868 78.4572C103.067 77.4912 101.729 75.6622 101.468 73.6183Z" fill="#E6E6E6"/>
<path d="M107.233 74.547C107.233 74.547 109.486 73.6373 109.769 73.1255C110.053 72.6137 110.451 69.6001 110.451 69.6001" stroke="#D0CDE1" stroke-width="3" stroke-miterlimit="10"/>
<path d="M107.204 89.9023L107.273 67.9202" stroke="#D0CDE1" stroke-width="3" stroke-miterlimit="10"/>
<path d="M90.2179 66.3745C89.8906 63.8059 90.9158 61.162 90.3064 58.6472C89.8375 56.7048 88.4486 55.083 87.9922 53.1371C87.3222 50.2531 88.8554 47.2912 90.8139 45.0769C92.1604 43.5508 93.8501 42.1654 95.8647 41.8882C97.1086 41.7111 98.3869 41.9847 99.5352 42.4923C100.703 43.0165 101.75 43.776 102.612 44.7234C103.473 45.6708 104.13 46.7859 104.542 47.9989C104.808 48.7873 104.961 49.6115 105.287 50.3762C105.849 51.6933 106.88 52.7562 107.521 54.0369C107.949 54.9052 108.19 55.8533 108.23 56.8205C108.27 57.7877 108.108 58.7526 107.754 59.6533C107.012 61.508 105.454 63.0599 105.224 65.0448C105.056 66.4753 105.593 68.0421 104.896 69.3018C104.371 70.2531 103.289 70.7338 102.265 71.0928C99.884 71.9219 96.5522 73.2682 94.1637 71.9865C92.073 70.8669 90.5205 68.7456 90.2179 66.3745Z" fill="#242154"/>
<path d="M96.8716 89.9023V59.3445" stroke="#333333" stroke-width="3" stroke-miterlimit="10"/>
<path d="M96.9052 68.2C96.9052 68.2 100.414 66.7828 100.856 65.9857C101.298 65.1886 101.917 60.4942 101.917 60.4942" stroke="#333333" stroke-width="3" stroke-miterlimit="10"/>
<path d="M82.2143 0.00787588L38.9196 0.113793C37.1406 0.118145 35.7019 1.56558 35.7063 3.34674L35.9099 86.7808C35.9143 88.562 37.36 90.0024 39.1389 89.998L82.4337 89.8921C84.2127 89.8877 85.6513 88.4403 85.647 86.6592L85.4433 3.22506C85.439 1.44391 83.9933 0.00352368 82.2143 0.00787588Z" fill="#2F2E41"/>
<path d="M83.8856 84.8359C83.8872 85.3265 83.694 85.7978 83.3487 86.146C83.0034 86.4942 82.5341 86.6908 82.044 86.6927L39.5453 86.7959C39.0552 86.7966 38.5849 86.6024 38.2377 86.256C37.8905 85.9097 37.6949 85.4394 37.6939 84.9487L37.6648 72.4462L37.5023 5.03295C37.5008 4.54224 37.6939 4.07098 38.0392 3.72277C38.3845 3.37455 38.8538 3.17787 39.3439 3.17595L48.2326 3.15505C48.3748 4.08647 48.8449 4.93631 49.558 5.55118C50.2711 6.16605 51.1802 6.50544 52.1213 6.5081L68.9152 6.46772C69.8587 6.46374 70.7697 6.12142 71.4828 5.5028C72.196 4.88419 72.6641 4.03023 72.8025 3.09571L81.83 3.0734C82.3201 3.07275 82.7904 3.26695 83.1375 3.61332C83.4847 3.9597 83.6802 4.4299 83.6813 4.92059L83.8548 72.4462L83.8856 84.8359Z" fill="white"/>
<path d="M83.8855 85.686C83.8914 86.1828 83.7 86.6615 83.3535 87.0171C83.007 87.3727 82.5336 87.576 82.0374 87.5823L39.3892 87.6876C38.893 87.684 38.4187 87.4833 38.0703 87.1296C37.7219 86.776 37.5281 86.2983 37.5313 85.8016L37.5023 73.0357H83.855L83.8855 85.686Z" fill="#E6E6E6"/>
<path d="M65.4399 3.25968L54.8728 3.41849C54.7305 3.42063 54.6168 3.53786 54.619 3.68034L54.6216 3.85834C54.6238 4.00082 54.7409 4.11459 54.8832 4.11245L65.4503 3.95363C65.5926 3.9515 65.7062 3.83426 65.7041 3.69179L65.7014 3.51378C65.6993 3.3713 65.5822 3.25754 65.4399 3.25968Z" fill="white"/>
<path d="M68.0614 3.91317C68.2913 3.90972 68.4749 3.72033 68.4715 3.49016C68.468 3.25999 68.2788 3.0762 68.049 3.07965C67.8191 3.08311 67.6355 3.2725 67.6389 3.50267C67.6424 3.73284 67.8316 3.91663 68.0614 3.91317Z" fill="white"/>
<path d="M47.4804 14.7017H41.4322C40.6851 14.7017 40.0793 15.3082 40.0793 16.0563V22.1118C40.0793 22.8599 40.6851 23.4663 41.4322 23.4663H47.4804C48.2276 23.4663 48.8333 22.8599 48.8333 22.1118V16.0563C48.8333 15.3082 48.2276 14.7017 47.4804 14.7017Z" fill="#E6E6E6"/>
<path d="M58.2862 14.7017H52.238C51.4908 14.7017 50.8851 15.3082 50.8851 16.0563V22.1118C50.8851 22.8599 51.4908 23.4663 52.238 23.4663H58.2862C59.0334 23.4663 59.6391 22.8599 59.6391 22.1118V16.0563C59.6391 15.3082 59.0334 14.7017 58.2862 14.7017Z" fill="#E6E6E6"/>
<path d="M69.092 14.7017H63.0437C62.2966 14.7017 61.6909 15.3082 61.6909 16.0563V22.1118C61.6909 22.8599 62.2966 23.4663 63.0437 23.4663H69.092C69.8391 23.4663 70.4448 22.8599 70.4448 22.1118V16.0563C70.4448 15.3082 69.8391 14.7017 69.092 14.7017Z" fill="#E6E6E6"/>
<path d="M79.8977 14.7017H73.8495C73.1024 14.7017 72.4966 15.3082 72.4966 16.0563V22.1118C72.4966 22.8599 73.1024 23.4663 73.8495 23.4663H79.8977C80.6449 23.4663 81.2506 22.8599 81.2506 22.1118V16.0563C81.2506 15.3082 80.6449 14.7017 79.8977 14.7017Z" fill="#E6E6E6"/>
<path d="M47.4773 27.8399H41.4322C40.6851 27.8399 40.0793 28.4463 40.0793 29.1944V35.2469C40.0793 35.995 40.6851 36.6014 41.4322 36.6014H47.4773C48.2245 36.6014 48.8302 35.995 48.8302 35.2469V29.1944C48.8302 28.4463 48.2245 27.8399 47.4773 27.8399Z" fill="#FF5376"/>
<path d="M58.2791 27.8399H52.234C51.4868 27.8399 50.8811 28.4463 50.8811 29.1944V35.2469C50.8811 35.995 51.4868 36.6014 52.234 36.6014H58.2791C59.0263 36.6014 59.632 35.995 59.632 35.2469V29.1944C59.632 28.4463 59.0263 27.8399 58.2791 27.8399Z" fill="#E6E6E6"/>
<path d="M69.081 27.8399H63.0359C62.2887 27.8399 61.683 28.4463 61.683 29.1944V35.2469C61.683 35.995 62.2887 36.6014 63.0359 36.6014H69.081C69.8282 36.6014 70.4339 35.995 70.4339 35.2469V29.1944C70.4339 28.4463 69.8282 27.8399 69.081 27.8399Z" fill="#E6E6E6"/>
<path d="M79.8827 27.8399H73.8376C73.0905 27.8399 72.4847 28.4463 72.4847 29.1944V35.2469C72.4847 35.995 73.0905 36.6014 73.8376 36.6014H79.8827C80.6299 36.6014 81.2356 35.995 81.2356 35.2469V29.1944C81.2356 28.4463 80.6299 27.8399 79.8827 27.8399Z" fill="#E6E6E6"/>
<path d="M47.4804 40.9955H41.4322C40.6851 40.9955 40.0793 41.6019 40.0793 42.35V48.4055C40.0793 49.1536 40.6851 49.7601 41.4322 49.7601H47.4804C48.2276 49.7601 48.8333 49.1536 48.8333 48.4055V42.35C48.8333 41.6019 48.2276 40.9955 47.4804 40.9955Z" fill="#E6E6E6"/>
<path d="M58.2862 40.9955H52.238C51.4908 40.9955 50.8851 41.6019 50.8851 42.35V48.4055C50.8851 49.1536 51.4908 49.7601 52.238 49.7601H58.2862C59.0334 49.7601 59.6391 49.1536 59.6391 48.4055V42.35C59.6391 41.6019 59.0334 40.9955 58.2862 40.9955Z" fill="#E6E6E6"/>
<path d="M69.092 40.9955H63.0437C62.2966 40.9955 61.6909 41.6019 61.6909 42.35V48.4055C61.6909 49.1536 62.2966 49.7601 63.0437 49.7601H69.092C69.8391 49.7601 70.4448 49.1536 70.4448 48.4055V42.35C70.4448 41.6019 69.8391 40.9955 69.092 40.9955Z" fill="#E6E6E6"/>
<path d="M79.8977 40.9955H73.8495C73.1024 40.9955 72.4966 41.6019 72.4966 42.35V48.4055C72.4966 49.1536 73.1024 49.7601 73.8495 49.7601H79.8977C80.6449 49.7601 81.2506 49.1536 81.2506 48.4055V42.35C81.2506 41.6019 80.6449 40.9955 79.8977 40.9955Z" fill="#E6E6E6"/>
<path d="M47.4804 54.1425H41.4322C40.6851 54.1425 40.0793 54.7489 40.0793 55.497V61.5525C40.0793 62.3006 40.6851 62.9071 41.4322 62.9071H47.4804C48.2276 62.9071 48.8333 62.3006 48.8333 61.5525V55.497C48.8333 54.7489 48.2276 54.1425 47.4804 54.1425Z" fill="#E6E6E6"/>
<path d="M58.2862 54.1425H52.238C51.4908 54.1425 50.8851 54.7489 50.8851 55.497V61.5525C50.8851 62.3006 51.4908 62.9071 52.238 62.9071H58.2862C59.0334 62.9071 59.6391 62.3006 59.6391 61.5525V55.497C59.6391 54.7489 59.0334 54.1425 58.2862 54.1425Z" fill="#E6E6E6"/>
<path d="M69.092 54.1425H63.0437C62.2966 54.1425 61.6909 54.7489 61.6909 55.497V61.5525C61.6909 62.3006 62.2966 62.9071 63.0437 62.9071H69.092C69.8391 62.9071 70.4448 62.3006 70.4448 61.5525V55.497C70.4448 54.7489 69.8391 54.1425 69.092 54.1425Z" fill="#E6E6E6"/>
<path d="M79.8977 54.1425H73.8495C73.1024 54.1425 72.4966 54.7489 72.4966 55.497V61.5525C72.4966 62.3006 73.1024 62.9071 73.8495 62.9071H79.8977C80.6449 62.9071 81.2506 62.3006 81.2506 61.5525V55.497C81.2506 54.7489 80.6449 54.1425 79.8977 54.1425Z" fill="#E6E6E6"/>
<path d="M47.1658 75.8804H40.7796C40.0325 75.8804 39.4268 76.4868 39.4268 77.2349V83.6288C39.4268 84.3769 40.0325 84.9833 40.7796 84.9833H47.1658C47.913 84.9833 48.5187 84.3769 48.5187 83.6288V77.2349C48.5187 76.4868 47.913 75.8804 47.1658 75.8804Z" fill="#242154"/>
<path d="M58.3887 75.8804H52.0025C51.2553 75.8804 50.6496 76.4868 50.6496 77.2349V83.6288C50.6496 84.3769 51.2553 84.9833 52.0025 84.9833H58.3887C59.1358 84.9833 59.7415 84.3769 59.7415 83.6288V77.2349C59.7415 76.4868 59.1358 75.8804 58.3887 75.8804Z" fill="#242154"/>
<path d="M69.6115 75.8804H63.2254C62.4782 75.8804 61.8725 76.4868 61.8725 77.2349V83.6288C61.8725 84.3769 62.4782 84.9833 63.2254 84.9833H69.6115C70.3587 84.9833 70.9644 84.3769 70.9644 83.6288V77.2349C70.9644 76.4868 70.3587 75.8804 69.6115 75.8804Z" fill="#242154"/>
<path d="M80.8344 75.8804H74.4482C73.701 75.8804 73.0953 76.4868 73.0953 77.2349V83.6288C73.0953 84.3769 73.701 84.9833 74.4482 84.9833H80.8344C81.5816 84.9833 82.1873 84.3769 82.1873 83.6288V77.2349C82.1873 76.4868 81.5816 75.8804 80.8344 75.8804Z" fill="#242154"/>
<path d="M37.9439 30.7252V32.7203L35.5696 36.2034L37.9439 37.7507C37.9439 37.7507 38.9992 33.6801 39.5681 33.201C39.5681 33.201 40.4617 32.5627 40.948 31.6848C41.4342 30.807 41.1911 27.7735 38.8363 30.4872V30.8067L37.9439 30.7252Z" fill="#FDA57D"/>
<path d="M19.4478 34.3235L20.3884 32.4409C20.4157 32.3855 20.4574 32.3383 20.5089 32.3043C20.5605 32.2703 20.6202 32.2507 20.6819 32.2474L24.2522 32.0649C24.3103 32.0618 24.3681 32.0733 24.4206 32.0984C24.473 32.1235 24.5183 32.1613 24.5524 32.2084C24.5865 32.2555 24.6082 32.3104 24.6157 32.3681C24.6231 32.4258 24.616 32.4845 24.595 32.5387L23.6738 34.9229C23.6466 34.9935 23.5972 35.0533 23.533 35.0932C23.4689 35.1331 23.3935 35.1511 23.3182 35.1443L19.7297 34.8245C19.6733 34.8196 19.619 34.801 19.5714 34.7703C19.5239 34.7397 19.4845 34.6978 19.4567 34.6485C19.4289 34.5991 19.4136 34.5437 19.4121 34.4871C19.4105 34.4304 19.4228 34.3743 19.4478 34.3235Z" fill="#FDA57D"/>
<path d="M19.712 33.5156L19.1055 35.2959L25.3333 35.0719L22.941 33.6348L19.712 33.5156Z" fill="#EDEEF9"/>
<path d="M17.2224 52.9715C17.4725 54.2032 17.3253 55.4827 16.8021 56.6252C15.9259 58.4612 15.9259 60.38 17.0414 62.612L17.3608 74.1868C17.3608 74.1868 17.759 79.6156 17.3608 80.7329C16.9625 81.8502 17.5172 87.2001 17.5172 87.2001H21.9825V83.6071L23.4968 72.9901V67.5604L26.2124 73.2287L23.1088 86.321L27.1744 87.9981L32.2767 73.3094C32.2767 73.3094 31.3922 61.7346 28.2032 57.7442L27.6032 53.3927L17.2224 52.9715Z" fill="#3F3D56"/>
<path d="M17.4396 89.8953V86.9421H21.9838C21.9838 86.9421 22.3032 88.1397 24.3761 88.3792C26.449 88.6186 23.4192 90.0562 23.4192 90.0562L17.4396 89.8953Z" fill="#3F3D56"/>
<path d="M22.4772 88.5728L23.2684 85.7244L27.2029 86.9758C27.2029 86.9758 27.6328 88.1849 29.566 88.9721C30.8826 89.5082 29.4484 90.1247 29.4484 90.1247L28.9308 90.2585L22.4772 88.5728Z" fill="#3F3D56"/>
<path opacity="0.1" d="M27.6037 53.6317L17.2209 53.2109C17.3495 53.8308 17.3762 54.4675 17.2998 55.096C17.7743 56.2146 18.7934 55.9087 18.7934 55.9087L27.8779 55.6291L27.6037 53.6317Z" fill="black"/>
<path d="M19.3136 34.6329L18.8997 34.9139C17.6475 35.7631 16.6692 36.9589 16.0843 38.3554C15.4994 39.7519 15.3332 41.2886 15.606 42.7781V42.7781C15.606 42.7781 17.9182 47.3095 17.2005 51.8412C16.4828 56.3728 18.795 55.6736 18.795 55.6736L27.9244 55.3921L28.602 41.6486C28.602 41.6486 34.1031 42.4319 36.5756 40.5157L38.5684 37.4671L35.5386 35.3735L34.5046 36.8544C34.5046 36.8544 31.2577 36.1682 29.4742 35.4431C28.6424 35.1033 27.7572 34.9135 26.8594 34.8824L19.3136 34.6329Z" fill="#242154"/>
<path opacity="0.1" d="M19.3934 56.7456C19.3934 56.7456 18.8347 59.5396 22.025 64.1696Z" fill="black"/>
<path opacity="0.1" d="M28.6383 41.6582C28.6383 41.6582 32.4651 40.381 34.1394 40.381C35.8138 40.381 35.5347 41.1047 35.5347 41.1047C35.5347 41.1047 32.8682 42.2965 28.6383 41.6582Z" fill="black"/>
<path opacity="0.1" d="M24.3024 32.2273L22.779 32.4098C22.7312 32.4098 22.6871 32.4759 22.6614 32.5703C22.9964 33.1749 23.4153 33.5349 23.8705 33.5349C24.0329 33.5325 24.192 33.488 24.3321 33.4059L24.4481 32.7002C24.4873 32.4656 24.4097 32.2144 24.3024 32.2273Z" fill="black"/>
<path d="M23.2394 33.3745C25.8076 33.3745 27.8896 31.29 27.8896 28.7187C27.8896 26.1473 25.8076 24.0628 23.2394 24.0628C20.6711 24.0628 18.5892 26.1473 18.5892 28.7187C18.5892 31.29 20.6711 33.3745 23.2394 33.3745Z" fill="#FDA57D"/>
<path opacity="0.1" d="M27.1952 26.0825L26.9573 26.2974C26.8576 26.3888 26.7825 26.5039 26.739 26.632C26.6954 26.7601 26.6848 26.8971 26.7082 27.0304C26.7315 27.1637 26.788 27.289 26.8725 27.3946C26.9569 27.5003 27.0666 27.5829 27.1914 27.6349V27.6349C27.1914 27.6349 25.1081 29.7208 24.8184 30.1079C24.5288 30.495 24.8662 31.514 24.8662 31.514C24.8662 31.514 25.7869 33.2114 20.9428 32.823C20.9428 32.823 17.7461 32.1446 18.085 27.828C18.1186 27.3956 17.4074 26.2743 19.5385 25.6943C19.6024 25.0884 19.8529 24.5174 20.2553 24.0603C20.6578 23.6033 21.1923 23.283 21.7847 23.1437C22.6086 22.9385 23.4594 22.8638 24.3064 22.9223C25.0955 22.9916 25.83 23.3547 26.3648 23.9397C26.8996 24.5248 27.196 25.2894 27.1952 26.0825V26.0825Z" fill="black"/>
<path d="M27.296 25.8287C27.296 25.8287 27.79 25.9815 27.8133 27.6038L27.1111 27.556C27.1111 27.556 25.4869 31.9062 25.6576 31.3391C26.2874 29.2533 25.0278 29.6417 24.7369 30.0301C24.4459 30.4185 24.7847 31.4362 24.7847 31.4362C24.7847 31.4362 25.7054 33.1337 20.8613 32.7452C20.8613 32.7452 17.6646 32.0668 18.0035 27.7502C18.0371 27.3178 17.3259 26.1965 19.457 25.6165C19.5203 25.0109 19.7701 24.44 20.1717 23.9828C20.5734 23.5256 21.1071 23.2047 21.6989 23.0646C22.5228 22.8594 23.3736 22.7848 24.2206 22.8432C25.8607 22.9817 27.296 24.1871 27.296 25.8287Z" fill="#72351C"/>
<path d="M4.79857 89.9036C4.79857 89.9036 2.76794 83.0019 5.18511 77.9218C6.20935 75.798 6.51813 73.399 6.06513 71.0847C5.84116 69.9874 5.51726 68.9131 5.09749 67.8751" stroke="#D0CDE1" stroke-width="2" stroke-miterlimit="10"/>
<path d="M6.59465 64.6603C6.59465 65.5066 5.06524 67.9589 5.06524 67.9589C5.06524 67.9589 3.53583 65.5079 3.53583 64.6603C3.53583 64.254 3.69703 63.8644 3.98397 63.5771C4.27091 63.2898 4.66009 63.1284 5.06588 63.1284C5.47168 63.1284 5.86086 63.2898 6.1478 63.5771C6.43474 63.8644 6.59594 64.254 6.59594 64.6603H6.59465Z" fill="#E6E6E6"/>
<path d="M9.25019 69.3457C8.79149 70.0552 6.1759 71.2808 6.1759 71.2808C6.1759 71.2808 6.22358 68.3898 6.68227 67.679C6.90285 67.338 7.24967 67.0988 7.64643 67.0139C8.0432 66.929 8.45741 67.0053 8.79793 67.2262C9.13846 67.447 9.37741 67.7943 9.46223 68.1915C9.54704 68.5888 9.47077 69.0035 9.25019 69.3444V69.3457Z" fill="#E6E6E6"/>
<path d="M9.01182 77.3529C8.25807 77.7399 5.38092 77.4703 5.38092 77.4703C5.38092 77.4703 6.87941 74.9986 7.63445 74.6168C7.99668 74.4339 8.41662 74.4026 8.80191 74.5297C9.1872 74.6568 9.50626 74.932 9.68891 75.2947C9.87156 75.6573 9.90284 76.0778 9.77586 76.4636C9.64888 76.8493 9.37405 77.1688 9.01182 77.3516V77.3529Z" fill="#E6E6E6"/>
<path d="M7.56492 83.3928C6.8859 83.896 4.00616 84.123 4.00616 84.123C4.00616 84.123 5.06657 81.4333 5.7456 80.9302C5.9071 80.8106 6.09055 80.724 6.28548 80.6754C6.48041 80.6267 6.68299 80.617 6.88166 80.6468C7.08033 80.6766 7.2712 80.7452 7.44337 80.8489C7.61554 80.9525 7.76564 81.089 7.8851 81.2507C8.00456 81.4124 8.09104 81.5961 8.1396 81.7913C8.18815 81.9864 8.19784 82.1893 8.16811 82.3882C8.13838 82.5871 8.06981 82.7782 7.96632 82.9506C7.86282 83.123 7.72643 83.2732 7.56492 83.3928V83.3928Z" fill="#E6E6E6"/>
<path d="M2.83491 71.4472C3.44049 72.0367 6.26481 72.6469 6.26481 72.6469C6.26481 72.6469 5.57291 69.8385 4.96733 69.2503C4.67383 68.9835 4.28836 68.8412 3.89216 68.8535C3.49595 68.8657 3.11997 69.0315 2.84346 69.3159C2.56695 69.6002 2.41152 69.981 2.40992 70.3779C2.40833 70.7747 2.5607 71.1567 2.83491 71.4433V71.4472Z" fill="#E6E6E6"/>
<path d="M1.23336 78.532C1.98711 78.919 4.86426 78.6494 4.86426 78.6494C4.86426 78.6494 3.36577 76.1777 2.61073 75.7958C2.43138 75.7053 2.23596 75.651 2.03565 75.6361C1.83533 75.6211 1.63404 75.6458 1.44327 75.7088C1.2525 75.7717 1.07597 75.8717 0.923777 76.003C0.771585 76.1342 0.646708 76.2942 0.556268 76.4738C0.465829 76.6533 0.411599 76.849 0.39668 77.0495C0.381762 77.2501 0.406448 77.4516 0.469322 77.6426C0.532195 77.8336 0.632026 78.0104 0.76312 78.1628C0.894214 78.3151 1.054 78.4402 1.23336 78.5307V78.532Z" fill="#E6E6E6"/>
<path d="M0.620047 85.6311C1.29907 86.1342 4.17879 86.3612 4.17879 86.3612C4.17879 86.3612 3.11839 83.6715 2.43936 83.1684C2.27786 83.0488 2.0944 82.9622 1.89948 82.9136C1.70455 82.865 1.50197 82.8553 1.3033 82.885C1.10463 82.9148 0.913758 82.9835 0.741588 83.0871C0.569418 83.1907 0.419322 83.3273 0.299864 83.489C0.180406 83.6507 0.0939232 83.8343 0.0453637 84.0295C-0.00319576 84.2247 -0.0128837 84.4275 0.0168482 84.6264C0.04658 84.8253 0.115154 85.0164 0.218651 85.1888C0.322148 85.3612 0.458542 85.5115 0.620047 85.6311V85.6311Z" fill="#E6E6E6"/>
</svg>
