<svg width="139" height="105" viewBox="0 0 139 105" fill="none" xmlns="http://www.w3.org/2000/svg">
<g clip-path="url(#clip0)">
<path d="M102.389 99.0263C93.2995 101.036 81.4043 100.656 68.6403 99.0411C58.1999 97.7203 46.4258 94.4166 36.8696 90.5706C37.8562 89.5728 39.1476 88.9327 40.5391 88.7517C40.5781 88.7458 40.6184 88.7401 40.6584 88.7356C41.363 88.6514 42.0751 88.6515 42.7796 88.736C51.7039 89.7378 50.066 94.6226 62.1047 89.1441C69.5917 85.737 77.6453 85.2576 82.9626 86.4147C83.0606 86.436 83.1573 86.4578 83.2539 86.4802C86.3297 87.1978 88.4333 88.4759 88.888 90.0503C90.1294 94.3446 84.573 96.9514 94.1101 97.1396C96.7563 97.1918 99.721 98.373 102.389 99.0263Z" fill="#3F3D56"/>
<path d="M52.025 50.9685C52.025 50.9685 50.2252 59.3131 52.6795 59.1495C55.1338 58.9859 53.9884 51.4594 53.9884 51.4594L52.025 50.9685Z" fill="#A0616A"/>
<path d="M61.8422 90.728L62.9875 96.7819L65.6054 96.4548L64.7873 89.9099L61.8422 90.728Z" fill="#A0616A"/>
<path d="M75.0955 84.8376L75.7499 89.2554H79.1859L78.5314 85.165L75.0955 84.8376Z" fill="#A0616A"/>
<path d="M59.2243 46.8781C59.2243 46.8781 56.4427 52.2775 57.4244 65.6943C58.4062 79.1111 58.4062 91.8734 58.4062 91.8734L65.4418 91.3826L67.4052 58.0042L75.0953 86.9649L80.1676 86.474L78.8586 58.1678L74.7681 44.5874L59.2243 46.8781Z" fill="#2F2E41"/>
<path d="M63.9693 94.0004C63.9693 94.0004 64.4601 92.5278 63.642 92.5278H61.8422C61.8422 92.5278 59.8788 96.1275 58.7334 96.4547C57.5881 96.7819 53.9885 99.8907 57.4245 100.218C60.8605 100.545 66.0963 98.7454 66.0963 98.0909C66.0963 97.4364 65.6055 94.6549 65.6055 94.6549L63.9693 94.0004Z" fill="#2F2E41"/>
<path d="M78.3678 88.2738C78.3678 88.2738 75.36 87.4418 75.5549 87.9396C75.7499 88.4374 75.0954 89.91 75.0954 89.91C75.0954 89.91 73.4592 99.2363 78.3678 98.4182C83.2764 97.6001 79.6768 90.5645 79.6768 90.5645L78.95 87.7809L78.3678 88.2738Z" fill="#2F2E41"/>
<path d="M64.6237 11.5363C67.3346 11.5363 69.5322 9.33864 69.5322 6.6277C69.5322 3.91676 67.3346 1.71912 64.6237 1.71912C61.9127 1.71912 59.7151 3.91676 59.7151 6.6277C59.7151 9.33864 61.9127 11.5363 64.6237 11.5363Z" fill="#A0616A"/>
<path d="M61.3513 9.24561C61.3513 9.24561 62.1694 13.9906 61.6786 14.9723C61.1877 15.954 65.6054 17.9174 65.6054 17.9174L67.8961 12.3544V9.24561L61.3513 9.24561Z" fill="#A0616A"/>
<path d="M63.9692 14.8086C63.9692 14.8086 62.4797 15.0277 61.8337 13.9365C61.1876 12.8452 59.715 21.517 59.715 21.517C59.715 21.517 60.3695 32.9704 59.5514 35.5883C58.7333 38.2062 58.8969 39.1879 59.2242 39.6788C59.5514 40.1697 60.5331 39.5152 59.715 40.8241C58.8969 42.1331 58.8969 41.315 58.8969 42.6239C58.8969 43.9329 58.5697 48.6779 58.5697 48.6779L76.2406 47.3689L67.896 11.5363C67.896 11.5363 65.1145 14.9723 63.9692 14.8086Z" fill="#3F3D56"/>
<path d="M70.8413 13.3361C70.8413 13.3361 77.5497 14.3178 77.877 15.7904C78.2042 17.2629 84.749 58.1678 81.313 60.2949C77.877 62.4219 66.7508 64.0581 66.26 61.931C65.7691 59.804 63.1512 16.4448 67.8962 11.5363L70.8413 13.3361Z" fill="#D0CDE1"/>
<path d="M80.2907 56.4365H78.9168C78.9168 56.4365 79.3396 51.4694 78.9168 51.0114C78.9168 51.0114 75.077 50.5887 71.2019 54.8161C71.2019 54.8161 71.8712 50.2012 76.8736 49.9546C78.4772 49.8757 79.404 50.5133 79.9226 51.4166C81.0224 53.3308 80.2907 56.4365 80.2907 56.4365Z" fill="#3F3D56"/>
<path opacity="0.15" d="M80.2908 56.4366H78.9169C78.9169 56.4366 79.3396 51.4694 78.9169 51.0115L79.9226 51.4166C81.0224 53.3309 80.2908 56.4366 80.2908 56.4366Z" fill="black"/>
<path d="M72.2235 53.1956L70.3212 56.4365H71.2019C71.2019 56.4365 71.3428 54.041 72.2235 53.1956Z" fill="#3F3D56"/>
<path opacity="0.15" d="M72.2235 53.1956L70.3212 56.4365H71.2019C71.2019 56.4365 71.3428 54.041 72.2235 53.1956Z" fill="black"/>
<path d="M88.4637 70.1402C88.4896 70.6845 88.3829 71.227 88.1528 71.721C87.9227 72.215 87.576 72.6457 87.1426 72.976C87.1426 72.976 69.6343 77.1329 67.6968 76.7807C67.4585 76.7361 67.2272 76.6603 67.0088 76.5552C65.4644 75.8225 64.491 73.8215 64.491 73.8215C64.491 73.8215 64.4618 73.3044 64.4185 72.4617C64.3353 70.8321 64.2008 67.9846 64.1264 65.3041C64.0532 62.6557 64.0387 60.1707 64.1916 59.1843C64.5791 56.6831 67.2564 56.4717 67.2564 56.4717L85.0818 55.6967C85.6673 55.6908 86.2508 55.7672 86.815 55.9236C88.742 56.5024 88.4637 57.9865 88.4637 57.9865C88.4637 57.9865 88.3932 68.2379 88.4637 70.1402Z" fill="#575A89"/>
<path d="M86.815 55.9236C85.7226 56.2639 83.0963 57.0142 82.1579 56.6831C80.9601 56.2604 71.6952 56.5422 68.3133 56.9297C64.9314 57.3172 66.1291 66.4765 66.1291 66.4765L64.1264 65.3041C64.0532 62.6557 64.0387 60.1707 64.1916 59.1843C64.5791 56.6831 67.2564 56.4717 67.2564 56.4717L85.0818 55.6967C85.6673 55.6908 86.2507 55.7672 86.815 55.9236V55.9236Z" fill="#3F3D56"/>
<path d="M74.0201 62.4957C74.0201 62.4957 72.3234 53.0118 75.444 51.7122L75.852 51.716C75.852 51.716 74.8656 53.0194 75.2531 55.4149C75.6406 57.8104 75.4293 63.2708 75.4293 63.2708C75.4293 63.2708 74.2315 63.9753 74.0201 62.4957Z" fill="#2F2E41"/>
<path d="M75.2532 52.0331C75.2532 52.0331 77.1203 49.0387 80.5374 50.6944C83.9545 52.3501 84.2715 56.1195 84.2715 56.1195C84.2715 56.1195 81.9113 49.2148 75.2532 52.0331Z" fill="#2F2E41"/>
<path d="M84.518 62.8834L83.9543 59.2548L84.2362 55.8574L84.9407 59.3605L85.2578 62.8834H84.518Z" fill="#2F2E41"/>
<path d="M78.177 62.4605L80.1498 61.9673L82.1578 62.2139V63.0946L80.326 63.6583L78.177 63.4468V62.4605Z" fill="#2F2E41"/>
<path d="M66.6927 75.2131C66.7413 75.672 66.8474 76.1229 67.0087 76.5553C65.4643 75.8225 64.4909 73.8216 64.4909 73.8216C64.4909 73.8216 64.4617 73.3044 64.4183 72.4618L65.7063 72.9937L66.6927 75.2131Z" fill="#3F3D56"/>
<path d="M67.5382 77.1506C67.4478 77.1294 67.3652 77.0832 67.2997 77.0175C67.5639 77.1238 67.6752 77.1795 67.5382 77.1506Z" fill="#2F2E41"/>
<path d="M61.8327 13.5814L55.4611 19.8808L57.7518 40.3332C57.7518 40.3332 53.1704 64.5489 55.7883 64.5489C58.4063 64.5489 58.079 64.8761 58.5699 63.0763C59.0607 61.2765 61.8327 13.5814 61.8327 13.5814Z" fill="#D0CDE1"/>
<path d="M57.0972 19.39L55.461 19.8809C55.461 19.8809 53.9884 21.0262 54.1521 23.4805C54.3157 25.9348 53.9884 32.9704 53.9884 32.9704C53.9884 32.9704 53.0067 34.443 53.4976 36.2428L51.2069 51.9503L56.2791 52.7684L58.0789 44.5874L57.0972 19.39Z" fill="#D0CDE1"/>
<path d="M77.3861 45.4055C77.3861 45.4055 75.4226 55.7135 77.3861 55.059C79.3495 54.4045 81.8038 47.2053 80.1676 46.0599C78.5314 44.9146 77.3861 45.4055 77.3861 45.4055Z" fill="#A0616A"/>
<path d="M59.7035 7.20327C59.7035 7.20327 59.2023 6.45158 59.3951 5.64207C59.5102 5.18247 59.5557 4.70818 59.53 4.23507C59.53 4.23507 59.9347 2.92443 60.3395 2.19202C60.7443 1.4596 60.5515 1.15122 61.8236 0.919931C63.0957 0.688642 62.5753 -0.968927 65.929 0.82356C66.0421 0.98154 66.1995 1.10246 66.3813 1.17107C66.5631 1.23967 66.7612 1.25289 66.9505 1.20904C67.6444 1.07412 67.8949 2.03783 67.8949 2.03783C67.8949 2.03783 68.3575 1.76799 68.531 2.15347C68.7044 2.53895 69.9413 1.92211 69.9413 4.52411C69.9413 7.12611 68.5338 9.45036 68.5338 9.45036C68.5338 9.45036 68.637 5.07349 66.3434 4.63019C64.0498 4.18688 61.5827 2.89552 60.9852 4.55309C60.6627 5.48341 60.2325 6.37283 59.7035 7.20327V7.20327Z" fill="#2F2E41"/>
<path d="M28.4953 61.1817C27.4086 62.0839 25.4928 66.5182 25.4928 66.5182C26.1058 66.5829 26.7228 66.6025 27.3387 66.5766L27.1231 65.3992L27.9244 66.5296C28.2371 66.4961 28.5459 66.4336 28.8469 66.3429L28.5151 64.5308L29.5512 65.9923C29.5588 65.9862 29.5667 65.9803 29.5742 65.9741C30.661 65.0719 31.3004 63.2678 31.0025 61.9444C30.7046 60.621 29.5821 60.2796 28.4953 61.1817Z" fill="#FF5376"/>
<path d="M57.457 80.9111C56.3702 81.8133 54.4545 86.2476 54.4545 86.2476C55.0675 86.3123 55.6845 86.3319 56.3004 86.306L56.0848 85.1286L56.8861 86.259C57.1987 86.2255 57.5076 86.163 57.8086 86.0722L57.4768 84.2602L58.5128 85.7217C58.5205 85.7156 58.5284 85.7097 58.5359 85.7035C59.6226 84.8013 60.2621 82.9971 59.9642 81.6738C59.6663 80.3504 58.5437 80.0089 57.457 80.9111Z" fill="#FF5376"/>
<path d="M53.2036 39.4757C52.2781 40.44 50.4075 44.8917 50.4075 44.8917C50.8889 44.9026 51.3704 44.8696 51.8459 44.7931L51.7763 43.672L52.3078 44.6984C52.5616 44.6374 52.8085 44.5509 53.0448 44.4402L52.9377 42.7147L53.625 44.0418C53.6315 44.0353 53.6381 44.0289 53.6445 44.0222C54.5701 43.058 55.2217 41.2585 55.0999 40.003C54.9782 38.7475 54.1292 38.5114 53.2036 39.4757Z" fill="#FF5376"/>
<path d="M29.9639 95.853C28.6751 95.499 23.87 95.9769 23.87 95.9769C24.09 96.4053 24.3485 96.8128 24.6424 97.1944L25.5948 96.5987L24.9459 97.5553C25.1204 97.7493 25.3142 97.9251 25.5242 98.08L26.9899 97.1633L26.151 98.4001C26.1598 98.4027 26.1686 98.4055 26.1775 98.4079C27.4664 98.7619 29.3588 98.4768 30.4044 97.7713C31.45 97.0658 31.2528 96.2069 29.9639 95.853Z" fill="#3F3D56"/>
<path d="M33.5051 93.8294C32.2162 93.4755 27.4111 93.9533 27.4111 93.9533C27.6311 94.3818 27.8896 94.7893 28.1835 95.1708L29.1359 94.5751L28.487 95.5317C28.6616 95.7257 28.8553 95.9016 29.0653 96.0565L30.531 95.1397L29.6921 96.3765C29.7009 96.3791 29.7097 96.382 29.7186 96.3844C31.0075 96.7383 32.9 96.4533 33.9456 95.7477C34.9912 95.0422 34.794 94.1833 33.5051 93.8294Z" fill="#3F3D56"/>
<path d="M71.1933 101.797C69.9044 101.443 65.0994 101.921 65.0994 101.921C65.3193 102.349 65.5779 102.757 65.8718 103.138L66.8241 102.543L66.1753 103.499C66.3498 103.693 66.5436 103.869 66.7536 104.024L68.2193 103.107L67.3803 104.344C67.3892 104.347 67.398 104.35 67.4068 104.352C68.6957 104.706 70.5882 104.421 71.6338 103.715C72.6794 103.01 72.4822 102.151 71.1933 101.797Z" fill="#3F3D56"/>
<path d="M33.5051 99.0147C32.2162 98.6608 27.4111 99.1386 27.4111 99.1386C27.6311 99.5671 27.8896 99.9746 28.1835 100.356L29.1359 99.7604L28.487 100.717C28.6616 100.911 28.8553 101.087 29.0653 101.242L30.531 100.325L29.6921 101.562C29.7009 101.564 29.7097 101.567 29.7186 101.57C31.0075 101.924 32.9 101.639 33.9456 100.933C34.9912 100.228 34.794 99.3686 33.5051 99.0147Z" fill="#3F3D56"/>
<path d="M87.8071 54.0898C87.4124 54.6965 87.1617 56.2252 87.0119 57.5531L87.7557 58.3461L86.9579 58.0637C86.8598 59.0576 86.8213 59.8334 86.8213 59.8334C86.8213 59.8334 90.0239 59.1396 90.7829 57.9731C91.5419 56.8066 91.4911 54.9917 90.6693 53.9193C89.8475 52.847 88.5661 52.9233 87.8071 54.0898Z" fill="#FF5376"/>
<path d="M91.1396 76.4761C90.7781 77.0829 90.5481 78.6117 90.4106 79.9396L91.0914 80.7324L90.3611 80.4502C90.2709 81.4442 90.2355 82.2199 90.2355 82.2199C90.2355 82.2199 93.1678 81.5253 93.863 80.3586C94.5582 79.1919 94.5121 77.3769 93.7601 76.3048C93.008 75.2327 91.8348 75.3094 91.1396 76.4761Z" fill="#FF5376"/>
<path d="M75.0954 14.8087C75.0954 14.8087 78.8586 14.1542 79.6767 19.0628C80.4948 23.9714 82.6219 33.6249 82.6219 33.6249L82.0376 48.3547L76.568 46.5508L76.7316 35.2611L73.9501 18.4083L75.0954 14.8087Z" fill="#D0CDE1"/>
<path opacity="0.15" d="M73.7046 21.4352L75.8316 35.3429L75.3407 47.1235L77.6315 35.67L73.7046 21.4352Z" fill="black"/>
<path d="M90.4658 9.96126C89.379 10.8634 87.4633 15.2978 87.4633 15.2978C88.0763 15.3625 88.6933 15.382 89.3092 15.3561L89.0936 14.1788L89.8949 15.3091C90.2075 15.2757 90.5163 15.2131 90.8174 15.1224L90.4856 13.3104L91.5216 14.7718C91.5293 14.7658 91.5372 14.7598 91.5447 14.7536C92.6314 13.8515 93.2709 12.0473 92.973 10.7239C92.675 9.40056 91.5525 9.0591 90.4658 9.96126Z" fill="#FF5376"/>
</g>
<defs>
<clipPath id="clip0">
<rect width="139" height="104.504" fill="white"/>
</clipPath>
</defs>
</svg>
