<svg width="15" height="19" viewBox="0 0 15 19" fill="none" xmlns="http://www.w3.org/2000/svg">
<path d="M7 0C5.343 0 4 1.343 4 3V9C4 10.657 5.343 12 7 12C8.657 12 10 10.657 10 9V3C10 1.343 8.657 0 7 0ZM0 9C0 12.5253 2.60936 15.4332 6 15.9199V19H8V15.9199C8.72415 15.8136 9.41503 15.6015 10.0508 15.293L8.50195 13.7441C8.02495 13.8951 7.527 14 7 14C4.239 14 2 11.761 2 9H0Z" fill="#242154"/>
<path d="M7 0C5.343 0 4 1.343 4 3V9C4 10.657 5.343 12 7 12C8.657 12 10 10.657 10 9V3C10 1.343 8.657 0 7 0ZM0 9C0 12.5253 2.60936 15.4332 6 15.9199V19H8V15.9199C8.72415 15.8136 9.41503 15.6015 10.0508 15.293L8.50195 13.7441C8.02495 13.8951 7.527 14 7 14C4.239 14 2 11.761 2 9H0Z" fill="#242154"/>
<path d="M14.0508 9C14.0508 12.5253 11.4414 15.4332 8.05078 15.9199V19H6.05078V15.9199C5.32663 15.8136 4.63576 15.6015 4 15.293L5.54883 13.7441C6.02583 13.8951 6.52378 14 7.05078 14C9.81178 14 12.0508 11.761 12.0508 9H14.0508Z" fill="#242154"/>
</svg>
