<svg width="19" height="20" viewBox="0 0 19 20" fill="none" xmlns="http://www.w3.org/2000/svg">
<path d="M7 0C5.343 0 4 1.343 4 3V9C4 10.657 5.343 12 7 12C8.657 12 10 10.657 10 9V3C10 1.343 8.657 0 7 0ZM0 9C0 12.5253 2.60936 15.4332 6 15.9199V19H8V15.9199C8.72415 15.8136 9.41503 15.6015 10.0508 15.293L8.50195 13.7441C8.02495 13.8951 7.527 14 7 14C4.239 14 2 11.761 2 9H0ZM12.4141 12L11 13.4141L13.1211 15.5352L11 17.6562L12.4141 19.0703L14.5352 16.9492L16.6562 19.0703L18.0703 17.6562L15.9492 15.5352L18.0703 13.4141L16.6562 12L14.5352 14.1211L12.4141 12Z" fill="#242154"/>
</svg>
