<svg width="104" height="99" viewBox="0 0 104 99" fill="none" xmlns="http://www.w3.org/2000/svg">
<path d="M1.3428 68.0637C0.638524 68.7553 0.235412 69.6973 0.221098 70.6849C0.206784 71.6724 0.582426 72.6257 1.26636 73.3375L24.9321 97.8589C25.2762 98.2155 25.6877 98.5 26.1427 98.6959C26.5977 98.8917 27.0871 98.9951 27.5823 98.9999C28.0775 99.0047 28.5688 98.9108 29.0274 98.7238C29.4861 98.5367 29.9031 98.2602 30.254 97.9104L102.469 25.9277C102.863 25.5344 103.165 25.0579 103.352 24.5329C103.538 24.0079 103.606 23.4477 103.548 22.8933C103.491 22.3389 103.311 21.8044 103.021 21.3287C102.731 20.8531 102.338 20.4483 101.872 20.1441L73.4753 1.628C72.7651 1.16012 71.9161 0.950353 71.0701 1.03372C70.224 1.1171 69.4322 1.48856 68.8267 2.08607L1.3428 68.0637Z" fill="#3F3D56"/>
<path d="M102.964 21.2376C102.821 21.4578 102.655 21.6625 102.469 21.8481L30.4238 95.1906C30.0729 95.5405 29.6559 95.817 29.1973 96.004C28.7386 96.191 28.2474 96.2849 27.7521 96.2801C27.2569 96.2753 26.7675 96.172 26.3126 95.9761C25.8576 95.7802 25.4461 95.4957 25.1019 95.1392L0.92681 69.5979C0.762102 69.4265 0.614167 69.2398 0.485032 69.0402C-0.442034 70.4681 0.0374098 72.0642 1.26639 73.3375L24.9321 97.8589C25.2763 98.2155 25.6878 98.5 26.1428 98.6958C26.5977 98.8917 27.0871 98.995 27.5823 98.9998C28.0776 99.0046 28.5688 98.9108 29.0275 98.7237C29.4862 98.5367 29.9031 98.2602 30.2541 97.9104L102.469 25.9277C103.076 25.3216 103.457 24.5246 103.548 23.6706C103.638 22.8166 103.432 21.9575 102.964 21.2376Z" fill="#242154"/>
<path d="M98.2997 20.3911L95.3609 18.5153C95.6705 19.0675 95.7842 19.7084 95.6834 20.3335C95.5827 20.9587 95.2735 21.5313 94.8063 21.958C94.339 22.3848 93.7411 22.6406 93.1101 22.6838C92.4791 22.7269 91.852 22.5549 91.3311 22.1958L72.3144 9.10706C71.8821 8.81003 71.5418 8.39738 71.3325 7.91616C71.1231 7.43494 71.0529 6.9045 71.1301 6.38531C71.2072 5.86613 71.4285 5.37907 71.7687 4.97967C72.1088 4.58027 72.5543 4.28459 73.0542 4.12634L71.5402 3.15993C71.3437 3.03453 71.1103 2.98034 70.8787 3.00638C70.6472 3.03242 70.4316 3.13713 70.2678 3.30304L6.29409 66.2426C6.19865 66.3393 6.12348 66.4541 6.073 66.5803C6.02252 66.7065 5.99776 66.8415 6.00016 66.9775C6.00256 67.1134 6.03208 67.2475 6.08699 67.3718C6.14189 67.4961 6.22108 67.6082 6.31988 67.7015L29.5536 90.3655C29.7462 90.5473 30.0019 90.6469 30.2666 90.6432C30.5313 90.6396 30.7841 90.5329 30.9716 90.3458L98.4711 21.9735C98.5792 21.8656 98.6617 21.7348 98.7126 21.5907C98.7634 21.4467 98.7812 21.293 98.7648 21.1411C98.7483 20.9892 98.698 20.8429 98.6175 20.7131C98.5369 20.5833 98.4283 20.4733 98.2997 20.3911Z" fill="white"/>
<path d="M22.442 54.0785L42.0671 72.6029L88.7468 26.4321L65.0565 10.995L22.442 54.0785Z" fill="#E6E6E6"/>
<path d="M86.9324 37.8266C87.0618 37.9503 87.2338 38.0192 87.4127 38.0192C87.5916 38.0192 87.7636 37.9503 87.893 37.8266L91.9751 33.74C92.1022 33.6123 92.1736 33.4395 92.1736 33.2592C92.1736 33.079 92.1022 32.9061 91.9751 32.7784C91.8457 32.6548 91.6737 32.5858 91.4949 32.5858C91.316 32.5858 91.144 32.6548 91.0146 32.7784L86.9324 36.8651C86.8053 36.9927 86.7339 37.1656 86.7339 37.3459C86.7339 37.5261 86.8053 37.699 86.9324 37.8266Z" fill="#3F3D56"/>
<path d="M80.056 44.7111C80.1835 44.8384 80.3562 44.9098 80.5362 44.9098C80.7163 44.9098 80.889 44.8384 81.0165 44.7111L85.0987 40.6244C85.2257 40.4968 85.297 40.3239 85.2969 40.1438C85.2968 39.9636 85.2252 39.7909 85.098 39.6635C84.9707 39.5361 84.7982 39.4644 84.6182 39.4643C84.4382 39.4642 84.2656 39.5355 84.1381 39.6628L80.056 43.7495C79.9288 43.8771 79.8574 44.05 79.8574 44.2303C79.8574 44.4106 79.9288 44.5835 80.056 44.7111Z" fill="#3F3D56"/>
<path d="M22.8952 74.5687C25.4271 74.5687 27.4796 72.5139 27.4796 69.9791C27.4796 67.4444 25.4271 65.3896 22.8952 65.3896C20.3634 65.3896 18.3109 67.4444 18.3109 69.9791C18.3109 72.5139 20.3634 74.5687 22.8952 74.5687Z" fill="#242154"/>
<path d="M56.3444 30.3202H7.88403V39.8988H56.3444V30.3202Z" fill="#E6E6E6"/>
<path d="M56.3444 15.185H7.88403V24.7636H56.3444V15.185Z" fill="#E6E6E6"/>
<path d="M56.3444 0H7.88403V9.57857H56.3444V0Z" fill="#E6E6E6"/>
<path d="M8.91718 8.54429H55.3114V1.03427H8.91718V8.54429Z" fill="white"/>
<path d="M8.91718 23.7627H55.3114V16.2527H8.91718V23.7627Z" fill="white"/>
<path d="M8.91699 38.8645H55.3112V31.3545H8.91699V38.8645Z" fill="white"/>
<path d="M12.9785 7.58826C14.5569 7.58826 15.8364 6.30728 15.8364 4.72713C15.8364 3.14697 14.5569 1.866 12.9785 1.866C11.4001 1.866 10.1206 3.14697 10.1206 4.72713C10.1206 6.30728 11.4001 7.58826 12.9785 7.58826Z" fill="#FF5376"/>
<path d="M48.0192 3.60748H19.8127V4.22947H48.0192V3.60748Z" fill="#FF5376"/>
<path d="M48.0192 5.22467H19.8127V5.84666H48.0192V5.22467Z" fill="#FF5376"/>
<path d="M12.9785 22.8976C14.5569 22.8976 15.8364 21.6166 15.8364 20.0365C15.8364 18.4563 14.5569 17.1754 12.9785 17.1754C11.4001 17.1754 10.1206 18.4563 10.1206 20.0365C10.1206 21.6166 11.4001 22.8976 12.9785 22.8976Z" fill="#CCCCCC"/>
<path d="M48.0192 18.917H19.8127V19.539H48.0192V18.917Z" fill="#CCCCCC"/>
<path d="M48.0192 20.5341H19.8127V21.156H48.0192V20.5341Z" fill="#CCCCCC"/>
<path d="M12.9785 38.0328C14.5569 38.0328 15.8364 36.7519 15.8364 35.1717C15.8364 33.5916 14.5569 32.3106 12.9785 32.3106C11.4001 32.3106 10.1206 33.5916 10.1206 35.1717C10.1206 36.7519 11.4001 38.0328 12.9785 38.0328Z" fill="#CCCCCC"/>
<path d="M48.0192 34.0521H19.8127V34.6741H48.0192V34.0521Z" fill="#CCCCCC"/>
<path d="M48.0192 35.6693H19.8127V36.2913H48.0192V35.6693Z" fill="#CCCCCC"/>
</svg>
