<svg width="240" height="167" viewBox="0 0 240 167" fill="none" xmlns="http://www.w3.org/2000/svg">
<g clip-path="url(#clip0)">
<path d="M229.232 70.2906C219.055 30.1634 213.692 20.1618 172.416 19C150.594 18.3858 129.634 15.6056 112.916 41C83.0299 86.3952 82.9466 108.837 105.063 123.743C115.747 130.959 125.375 139.636 133.666 149.522C148.605 167.297 177.344 189.385 211.57 154.776C236.378 129.692 236.011 97.0193 229.232 70.2906Z" fill="#D3D3D3"/>
<path d="M66.1808 23.7578C61.7184 6.86678 59.3672 2.65675 41.2686 2.1677C31.7004 1.90915 22.5101 0.738881 15.1796 11.4283C2.07545 30.5368 6.25373 40.5531 15.951 46.8276C20.636 49.8651 20.6426 52.9477 24.2781 57.109C30.8283 64.5912 43.4294 73.8889 58.4367 59.3209C69.314 48.762 69.1532 35.0089 66.1808 23.7578Z" fill="#D3D3D3"/>
<path d="M217.822 24.0811L224.095 22.123L224.637 16.5918C224.637 16.5918 209.378 10.8217 204.499 21.0279C202.777 24.6316 200.606 26.7959 198.518 28.0879C195.642 29.8675 192.097 30.0764 188.921 28.9152C178.345 25.0489 175.855 36.0438 175.855 36.0438C175.855 36.0438 176.769 37.609 183.288 37.9938C186.532 38.1853 189.187 40.6292 191.035 43.0362C194.993 48.1904 203.123 46.7008 205.119 40.5145C205.151 40.4148 205.183 40.3139 205.214 40.2116C208.332 29.9854 222.529 38.1275 222.529 38.1275L223.436 28.8651L217.822 24.0811Z" fill="#2F2E41"/>
<path d="M175.074 49.1127C179.318 49.1127 182.758 45.6689 182.758 41.4206C182.758 37.1724 179.318 33.7285 175.074 33.7285C170.83 33.7285 167.39 37.1724 167.39 41.4206C167.39 45.6689 170.83 49.1127 175.074 49.1127Z" fill="#2F2E41"/>
<path d="M171.232 82.4452C182.548 82.4452 191.723 73.2616 191.723 61.9329C191.723 50.6043 182.548 41.4206 171.232 41.4206C159.915 41.4206 150.741 50.6043 150.741 61.9329C150.741 73.2616 159.915 82.4452 171.232 82.4452Z" fill="#2F2E41"/>
<path d="M170.591 83.5136C178.372 83.5136 184.679 77.1998 184.679 69.4114C184.679 61.6229 178.372 55.3092 170.591 55.3092C162.811 55.3092 156.504 61.6229 156.504 69.4114C156.504 77.1998 162.811 83.5136 170.591 83.5136Z" fill="#A0616A"/>
<path d="M165.042 80.0949L167.603 93.7697L180.41 92.0604C180.41 92.0604 178.275 81.3769 179.556 78.3855L165.042 80.0949Z" fill="#A0616A"/>
<path d="M101.862 133.085C101.862 133.085 87.3475 124.538 86.0668 130.521C84.7861 136.504 100.581 139.068 100.581 139.068L101.862 133.085Z" fill="#A0616A"/>
<path d="M190.228 50.1811C190.228 50.1811 179.983 42.489 175.714 45.4804C171.445 48.4717 187.24 58.3005 188.948 57.4459C190.655 56.5912 190.228 50.1811 190.228 50.1811Z" fill="#A0616A"/>
<path d="M180.41 84.7956L165.042 87.3596V94.1971C165.042 94.1971 150.527 98.8978 150.527 101.035C150.527 103.171 146.685 111.291 146.685 111.291C146.685 111.291 137.294 118.128 144.978 126.248C144.978 126.248 147.966 130.948 145.832 131.376C143.697 131.803 139.001 133.085 141.136 134.794C143.27 136.504 175.287 148.042 177.849 147.187C180.41 146.333 200.047 115.991 200.047 108.299C200.047 100.607 191.936 89.4963 191.936 89.4963L182.544 88.2143L180.41 84.7956Z" fill="#FF5376"/>
<path d="M151.808 100.607C151.808 100.607 145.832 99.7525 143.697 107.017C141.563 114.282 134.306 137.786 134.306 137.786C134.306 137.786 108.265 137.358 101.435 130.948L98.4467 140.777C98.4467 140.777 137.721 154.879 141.136 152.315C144.551 149.751 159.492 108.299 159.492 108.299L151.808 100.607Z" fill="#FF5376"/>
<path d="M190.655 90.7784L191.936 89.4963C191.936 89.4963 208.158 71.9754 207.731 67.702C207.731 67.702 199.193 57.0185 188.521 60.0099C188.521 60.0099 183.825 48.4717 191.082 48.8991C198.339 49.3264 225.234 47.6171 224.807 60.0099C224.38 72.4027 198.766 110.436 198.766 110.436L190.655 90.7784Z" fill="#FF5376"/>
<path d="M179.477 165.58C175.577 166.22 171.631 166.541 167.678 166.54C155.12 166.559 142.775 163.286 131.873 157.045L134.41 151.902L142.485 135.519L142.844 134.794L148.726 136.569L178.275 145.479L178.356 146.844L179.477 165.58Z" fill="#2F2E41"/>
<path d="M184.568 63.0569C186.163 58.3648 181.485 52.5273 174.119 50.0184C166.754 47.5095 159.49 49.2794 157.895 53.9715C156.3 58.6636 160.978 64.5011 168.344 67.01C175.709 69.5189 182.973 67.749 184.568 63.0569Z" fill="#2F2E41"/>
<path d="M60.482 55.6919C65.8546 52.6025 73.7132 53.3775 77.0467 59.0624C78.5471 61.6213 79.0284 64.8163 78.0643 67.6532C76.9444 70.9488 73.8758 72.8649 70.9645 74.4261C69.3844 75.2734 67.7469 76.0487 66.2554 77.0499C64.7109 78.0866 63.2174 79.4637 62.7538 81.3372C62.3362 83.0251 62.8291 84.7409 63.5962 86.25C64.4625 87.8838 65.511 89.4139 66.7217 90.8112C69.1839 93.7366 72.1878 96.1586 75.5685 97.9444C77.2527 98.8252 79.015 99.5483 80.8327 100.104C82.7629 100.701 84.7318 101.165 86.6585 101.774C89.8754 102.79 93.2697 104.396 95.0619 107.412C96.8031 110.343 96.2174 113.882 94.8841 116.857C92.422 122.351 87.1682 126.398 81.3429 127.732C78.5483 128.372 75.4845 128.438 72.7362 127.55C70.3382 126.774 67.676 125.098 66.9718 122.516C66.1858 119.635 68.3357 117.105 70.9376 116.167C74.2572 114.971 77.7885 116.359 80.6663 118.044C83.94 119.961 86.8753 122.423 90.2908 124.104C91.9437 124.948 93.7207 125.522 95.5549 125.807C97.1848 126.028 98.8416 125.952 100.445 125.583C103.629 124.865 106.559 123.104 108.876 120.827C111.662 118.088 113.568 114.584 114.933 110.954C115.625 109.075 116.209 107.159 116.682 105.213C116.886 104.395 115.625 104.026 115.419 104.85C113.599 112.144 110.34 119.872 103.14 123.268C100.125 124.732 96.6662 124.991 93.4692 123.991C89.7572 122.819 86.6202 120.352 83.4189 118.226C80.3748 116.205 76.8815 114.232 73.0996 114.411C69.9976 114.559 66.7307 116.452 65.754 119.532C64.8122 122.501 66.4863 125.325 68.8382 127.044C71.3058 128.848 74.3968 129.542 77.4144 129.514C83.6919 129.456 89.7683 126.313 93.6434 121.407C95.6626 118.85 97.1482 115.674 97.4329 112.405C97.605 110.647 97.2809 108.876 96.4973 107.293C95.7043 105.734 94.4714 104.45 93.0803 103.411C89.9198 101.049 85.9956 100.228 82.2782 99.1619C80.366 98.6385 78.5072 97.9368 76.7263 97.0659C75.0102 96.2006 73.3841 95.1673 71.8718 93.9811C70.3734 92.8005 68.9983 91.4713 67.7672 90.0138C66.541 88.6182 65.494 87.0746 64.6505 85.419C63.9262 83.9257 63.5652 82.2017 64.4184 80.6777C65.3441 79.0243 67.0827 78.0123 68.6904 77.1252C71.8661 75.3728 75.3647 73.899 77.6927 70.9959C79.729 68.4564 80.2853 65.0642 79.5778 61.9293C79.2308 60.3455 78.5605 58.8508 77.6091 57.5387C76.6577 56.2267 75.4455 55.1255 74.0485 54.3043C71.1631 52.6478 67.6915 52.2184 64.4439 52.8361C62.8331 53.1433 61.2845 53.717 59.8618 54.5335C59.1282 54.9554 59.7477 56.1142 60.482 55.6919Z" fill="#242154"/>
<path d="M43.5613 7.45045C41.4772 7.45055 39.4499 8.13051 37.7864 9.38736C36.1229 10.6442 34.9138 12.4095 34.3423 14.4158C33.7708 16.4222 33.868 18.5603 34.6192 20.5064C35.3704 22.4525 36.7346 24.1005 38.5052 25.201C38.5331 25.2183 38.5626 25.2332 38.5907 25.2502C38.9446 24.2119 39.6141 23.3104 40.5055 22.6721C41.3969 22.0337 42.4654 21.6905 43.5613 21.6905C44.6573 21.6905 45.7258 22.0337 46.6172 22.6721C47.5085 23.3104 48.1781 24.2119 48.532 25.2502C48.5601 25.2332 48.5896 25.2183 48.6174 25.201C50.3881 24.1005 51.7523 22.4525 52.5035 20.5064C53.2547 18.5603 53.3519 16.4222 52.7804 14.4158C52.2089 12.4095 50.9998 10.6442 49.3363 9.38736C47.6728 8.13051 45.6455 7.45055 43.5613 7.45045ZM43.5613 20.7618C42.8886 20.7618 42.2309 20.5621 41.6715 20.1879C41.1121 19.8137 40.6761 19.2819 40.4186 18.6597C40.1611 18.0375 40.0938 17.3528 40.225 16.6922C40.3563 16.0317 40.6803 15.4249 41.156 14.9487C41.6317 14.4725 42.2378 14.1481 42.8977 14.0168C43.5576 13.8854 44.2415 13.9528 44.8631 14.2105C45.4847 14.4683 46.0159 14.9047 46.3897 15.4647C46.7635 16.0247 46.963 16.6831 46.963 17.3566C46.963 18.2597 46.6046 19.1258 45.9667 19.7644C45.3287 20.403 44.4635 20.7618 43.5613 20.7618Z" fill="#242154"/>
<path d="M27.1438 35.9375C28.1109 35.9375 28.895 35.1526 28.895 34.1844C28.895 33.2162 28.1109 32.4314 27.1438 32.4314C26.1766 32.4314 25.3925 33.2162 25.3925 34.1844C25.3925 35.1526 26.1766 35.9375 27.1438 35.9375Z" fill="#242154"/>
<path d="M27.1438 43.8262C28.1109 43.8262 28.895 43.0413 28.895 42.0731C28.895 41.105 28.1109 40.3201 27.1438 40.3201C26.1766 40.3201 25.3925 41.105 25.3925 42.0731C25.3925 43.0413 26.1766 43.8262 27.1438 43.8262Z" fill="#242154"/>
<path d="M27.1438 51.7149C28.1109 51.7149 28.895 50.93 28.895 49.9619C28.895 48.9937 28.1109 48.2088 27.1438 48.2088C26.1766 48.2088 25.3925 48.9937 25.3925 49.9619C25.3925 50.93 26.1766 51.7149 27.1438 51.7149Z" fill="#242154"/>
<path d="M27.1438 59.6036C28.1109 59.6036 28.895 58.8188 28.895 57.8506C28.895 56.8824 28.1109 56.0975 27.1438 56.0975C26.1766 56.0975 25.3925 56.8824 25.3925 57.8506C25.3925 58.8188 26.1766 59.6036 27.1438 59.6036Z" fill="#242154"/>
<path d="M53.4119 48.2088H33.7108C32.7436 48.2088 31.9596 48.9937 31.9596 49.9619V49.9619C31.9596 50.93 32.7436 51.7149 33.7108 51.7149H53.4119C54.3791 51.7149 55.1631 50.93 55.1631 49.9619C55.1631 48.9937 54.3791 48.2088 53.4119 48.2088Z" fill="#242154"/>
<path d="M53.4119 56.0975H33.7108C32.7436 56.0975 31.9596 56.8824 31.9596 57.8506C31.9596 58.8188 32.7436 59.6036 33.7108 59.6036H53.4119C54.3791 59.6036 55.1631 58.8188 55.1631 57.8506C55.1631 56.8824 54.3791 56.0975 53.4119 56.0975Z" fill="#242154"/>
<path d="M53.4119 40.3201H33.7108C32.7436 40.3201 31.9596 41.1049 31.9596 42.0731V42.0731C31.9596 43.0413 32.7436 43.8262 33.7108 43.8262H53.4119C54.3791 43.8262 55.1631 43.0413 55.1631 42.0731C55.1631 41.1049 54.3791 40.3201 53.4119 40.3201Z" fill="#242154"/>
<path d="M53.4119 32.4314H33.7108C32.7436 32.4314 31.9596 33.2162 31.9596 34.1844V34.1844C31.9596 35.1526 32.7436 35.9375 33.7108 35.9375H53.4119C54.3791 35.9375 55.1631 35.1526 55.1631 34.1844C55.1631 33.2162 54.3791 32.4314 53.4119 32.4314Z" fill="#242154"/>
</g>
<defs>
<clipPath id="clip0">
<rect width="239.916" height="166.54" fill="white"/>
</clipPath>
</defs>
</svg>
