<svg width="45" height="37" viewBox="0 0 45 37" fill="none" xmlns="http://www.w3.org/2000/svg">
<path d="M20.4545 0V12.3333H24.5455V0H20.4545ZM8.79274 2.59755L5.08527 4.33594L10.2749 15.513L13.9824 13.7746L8.79274 2.59755ZM36.2073 2.59755L31.0176 13.7746L34.7251 15.513L39.9147 4.33594L36.2073 2.59755ZM22.496 20.5556C9.6973 20.5576 0.880325 29.3654 0.542817 29.7293C-0.324476 30.6008 -0.0217414 31.7574 0.542817 32.3268L5.11323 36.458C5.4712 36.8177 5.94118 37 6.41165 37C6.86371 37 7.31624 36.8333 7.67011 36.4941C8.50468 35.6966 9.57393 34.7121 10.3349 34.1776C11.1571 33.598 12.5699 32.75 13.3472 32.3389C13.9567 32.0161 14.3139 31.3815 14.318 30.6888V26.0598C16.699 25.2376 19.4338 24.6667 22.5 24.6667C25.5662 24.6667 28.301 25.2376 30.682 26.0598V30.6888C30.6861 31.3815 31.0433 32.0161 31.6528 32.3389C32.4301 32.75 33.8429 33.598 34.6651 34.1776C35.4261 34.7121 36.4953 35.6966 37.3299 36.4941C37.6838 36.8333 38.1363 37 38.5883 37C39.0588 37 39.5288 36.8177 39.8868 36.458L44.4572 32.3268C45.0217 31.7574 45.3245 30.6008 44.4572 29.7293C44.1197 29.3654 35.3027 20.5576 22.504 20.5556H22.5H22.496Z" fill="#FF5376"/>
</svg>
