<svg width="20" height="18" viewBox="0 0 20 18" fill="none" xmlns="http://www.w3.org/2000/svg">
<path d="M7 0L5 2H2C0.898438 2 0 2.89844 0 4V16C0 17.1016 0.898438 18 2 18H18C19.1016 18 20 17.1016 20 16V4C20 2.89844 19.1016 2 18 2H15L13 0H7ZM10 5C12.8008 5 15 7.19922 15 10C15 12.8008 12.8008 15 10 15C7.19922 15 5 12.8008 5 10C5 7.19922 7.19922 5 10 5ZM10 6.5C8.06641 6.5 6.5 8.06641 6.5 10C6.5 11.9336 8.06641 13.5 10 13.5C11.9336 13.5 13.5 11.9336 13.5 10C13.5 8.06641 11.9336 6.5 10 6.5Z" fill="#242154"/>
</svg>
