<svg width="264" height="151" viewBox="0 0 264 151" fill="none" xmlns="http://www.w3.org/2000/svg">
<g clip-path="url(#clip0)">
<path d="M197.753 0.000237042H144.924C142.375 0.000236063 139.901 0.870404 137.91 2.4677C135.919 4.065 134.529 6.29438 133.968 8.78937L107.275 127.577C106.984 128.872 106.979 130.216 107.26 131.514C107.541 132.812 108.102 134.032 108.903 135.09C109.704 136.147 110.726 137.016 111.897 137.635C113.068 138.255 114.36 138.609 115.683 138.675L169.991 141.359C172.9 141.503 175.76 140.58 178.04 138.763C180.32 136.946 181.863 134.359 182.381 131.485L197.523 47.5009L198.65 47.8238L201.547 31.9057L200.388 31.6148L204.614 8.17188C204.796 7.16778 204.754 6.13596 204.492 5.15C204.229 4.16404 203.754 3.24821 203.099 2.4678C202.443 1.68739 201.625 1.06162 200.701 0.635097C199.777 0.208574 198.77 -0.00819786 197.753 0.000237042Z" fill="#3F3D56"/>
<path d="M151.879 2.56092H145.712C143.941 2.56092 142.223 3.16857 140.844 4.283C139.465 5.39744 138.507 6.95162 138.129 8.68754L112.507 126.506C112.36 127.184 112.36 127.886 112.508 128.565C112.655 129.243 112.947 129.881 113.364 130.436C113.78 130.991 114.31 131.449 114.919 131.779C115.528 132.109 116.201 132.303 116.891 132.349L171.024 135.908C172.552 136.008 174.062 135.541 175.268 134.595C176.474 133.65 177.29 132.292 177.561 130.781L199.425 9.00401C199.566 8.21583 199.534 7.40608 199.329 6.63193C199.125 5.85778 198.753 5.13808 198.241 4.52363C197.729 3.90918 197.089 3.41495 196.366 3.07581C195.643 2.73668 194.854 2.56092 194.056 2.56092H188.206C187.64 2.56092 187.089 2.74818 186.64 3.09373C186.191 3.43927 185.867 3.92381 185.72 4.47234C185.59 4.95659 185.305 5.38436 184.908 5.68941C184.511 5.99446 184.025 6.15979 183.525 6.15979H155.753C154.774 6.15979 153.831 5.78912 153.113 5.12188C152.395 4.45465 151.954 3.54004 151.879 2.56091L151.879 2.56092Z" fill="#FF5376"/>
<path d="M230.126 104.776C221.678 118.168 224.271 135.019 224.271 135.019C224.271 135.019 240.56 130.157 249.008 116.765C257.455 103.373 254.862 86.5226 254.862 86.5226C254.862 86.5226 238.573 91.3845 230.126 104.776Z" fill="#D0CDE1"/>
<path d="M236.638 107.035C236.171 122.876 224.624 135.386 224.624 135.386C224.624 135.386 213.835 122.213 214.302 106.372C214.769 90.5305 226.316 78.02 226.316 78.02C226.316 78.02 237.105 91.1934 236.638 107.035Z" fill="#242154"/>
<path d="M25.4584 87.0546C28.1261 87.0546 30.2887 85.5778 30.2887 83.7561C30.2887 81.9343 28.1261 80.4575 25.4584 80.4575C22.7907 80.4575 20.6282 81.9343 20.6282 83.7561C20.6282 85.5778 22.7907 87.0546 25.4584 87.0546Z" fill="#242154"/>
<path d="M25.4585 83.7561C25.4585 83.7561 48.4021 123.751 47.7984 129.523L25.4585 83.7561Z" fill="#6C63FF"/>
<path d="M40.553 86.515V109.911C35.747 103.23 26.1611 96.3509 8.19775 90.7664L40.553 135.354V135.692C40.553 135.692 40.6141 135.659 40.7279 135.595L40.783 135.671C40.783 135.671 40.8292 135.609 40.9118 135.489C44.6815 133.298 76.2968 113.546 40.553 86.515Z" fill="#3F3D56"/>
<path d="M201.545 87.0546C204.212 87.0546 206.375 85.5778 206.375 83.7561C206.375 81.9343 204.212 80.4575 201.545 80.4575C198.877 80.4575 196.714 81.9343 196.714 83.7561C196.714 85.5778 198.877 87.0546 201.545 87.0546Z" fill="#242154"/>
<path d="M201.545 83.7561C201.545 83.7561 224.488 123.751 223.885 129.523L201.545 83.7561Z" fill="#6C63FF"/>
<path d="M216.639 86.515V109.911C211.833 103.23 202.247 96.3509 184.284 90.7664L216.639 135.354V135.692C216.639 135.692 216.7 135.659 216.814 135.595L216.869 135.671C216.869 135.671 216.915 135.609 216.998 135.489C220.768 133.298 252.383 113.546 216.639 86.515Z" fill="#3F3D56"/>
<path d="M9.9751 128.864C12.511 133.582 17.8931 135.607 17.8931 135.607C17.8931 135.607 19.1636 129.983 16.6277 125.265C14.0918 120.547 8.70978 118.521 8.70978 118.521C8.70978 118.521 7.43921 124.145 9.9751 128.864Z" fill="#D0CDE1"/>
<path d="M11.7181 127.311C16.2964 130.075 18.0597 135.564 18.0597 135.564C18.0597 135.564 12.4 136.572 7.82169 133.809C3.24336 131.045 1.4801 125.556 1.4801 125.556C1.4801 125.556 7.13978 124.548 11.7181 127.311Z" fill="#242154"/>
<path d="M161.471 128.864C164.007 133.582 169.389 135.607 169.389 135.607C169.389 135.607 170.659 129.983 168.123 125.265C165.588 120.547 160.206 118.521 160.206 118.521C160.206 118.521 158.935 124.145 161.471 128.864Z" fill="#3F3D56"/>
<path d="M163.214 127.311C167.792 130.075 169.555 135.564 169.555 135.564C169.555 135.564 163.896 136.572 159.317 133.809C154.739 131.045 152.976 125.556 152.976 125.556C152.976 125.556 158.636 124.548 163.214 127.311Z" fill="#3F3D56"/>
<path d="M99.5552 125.339C102.091 130.057 107.473 132.083 107.473 132.083C107.473 132.083 108.744 126.459 106.208 121.74C103.672 117.022 98.2899 114.997 98.2899 114.997C98.2899 114.997 97.0193 120.621 99.5552 125.339Z" fill="#3F3D56"/>
<path d="M101.298 123.787C105.877 126.55 107.64 132.039 107.64 132.039C107.64 132.039 101.98 133.048 97.4018 130.285C92.8234 127.521 91.0602 122.032 91.0602 122.032C91.0602 122.032 96.7199 121.024 101.298 123.787Z" fill="#242154"/>
<path d="M72.1104 125.339C74.6462 130.057 80.0283 132.083 80.0283 132.083C80.0283 132.083 81.2989 126.459 78.763 121.74C76.2271 117.022 70.845 114.997 70.845 114.997C70.845 114.997 69.5745 120.621 72.1104 125.339Z" fill="#D0CDE1"/>
<path d="M73.8534 123.787C78.4317 126.55 80.1949 132.039 80.1949 132.039C80.1949 132.039 74.5353 133.048 69.9569 130.285C65.3786 127.521 63.6154 122.032 63.6154 122.032C63.6154 122.032 69.275 121.024 73.8534 123.787Z" fill="#6C63FF"/>
<path d="M253.685 128.864C251.15 133.582 245.768 135.607 245.768 135.607C245.768 135.607 244.497 129.983 247.033 125.265C249.569 120.547 254.951 118.521 254.951 118.521C254.951 118.521 256.221 124.145 253.685 128.864Z" fill="#3F3D56"/>
<path d="M251.943 127.311C247.364 130.075 245.601 135.564 245.601 135.564C245.601 135.564 251.261 136.572 255.839 133.809C260.417 131.045 262.181 125.556 262.181 125.556C262.181 125.556 256.521 124.548 251.943 127.311Z" fill="#242154"/>
<path d="M263.687 139.044C263.687 139.044 257.371 137.167 244.81 135.363L245.036 131.507C246.927 109.794 232.11 77.4468 232.11 77.4468C237.817 93.5396 240.648 110.517 240.473 127.597C238.508 124.256 234.748 120.671 227.579 118.532C227.579 118.532 236.966 126.405 239.729 134.683C230.257 133.508 217.986 132.478 202.938 132.176L206.039 124.768L199.991 130.989C199.991 130.989 197.239 112.588 191.826 111.933L196.015 129.955C196.015 129.955 191.286 126.399 190.21 126.774L192.942 132.088C191.262 132.092 189.553 132.105 187.814 132.127C189.11 110.441 174.806 79.209 174.806 79.209C180.512 95.3019 183.343 112.279 183.168 129.359C181.203 126.018 177.443 122.434 170.275 120.295C170.275 120.295 176.728 125.708 180.508 132.277C171.003 132.541 160.689 133.097 149.57 134.036C148.279 133.998 146.967 133.965 145.633 133.938L147.084 130.471L147.646 129.379C147.614 129.369 147.582 129.362 147.55 129.358L148.734 126.53L144.888 130.487C144.024 131.012 143.157 131.611 142.569 132.029C142.507 131.658 142.419 131.158 142.306 130.56L146.029 114.538C143.631 114.828 141.755 118.604 140.409 122.719C139.049 118.291 137.083 114.005 134.521 113.695L138.424 130.485C138.36 130.802 138.302 131.101 138.25 131.379C137.05 130.512 133.859 128.292 132.941 128.529L131.817 127.372L134.53 133.855C133.229 133.861 131.911 133.872 130.575 133.889C130.354 133.864 130.132 133.839 129.911 133.815L131.87 129.135L127.568 133.56C126.867 133.485 126.169 133.412 125.474 133.34C124.579 128.546 121.958 116.82 117.657 116.3L121.526 132.945C120.886 132.883 120.248 132.822 119.614 132.763C118.232 131.862 116.616 130.941 116.041 131.141L116.74 132.5C99.5145 130.969 84.1796 130.355 70.7446 130.326L73.4764 125.012C72.4001 124.637 67.6717 128.192 67.6717 128.192L71.8602 110.171C68.4942 110.578 66.1574 117.848 64.8712 123.287C63.6621 120.468 62.1549 118.28 60.3522 118.062L62.712 128.215L57.6478 123.006L60.7488 130.414C45.7008 130.716 33.4295 131.746 23.9578 132.921C26.7208 124.643 36.1071 116.77 36.1071 116.77C28.9389 118.909 25.1787 122.493 23.2139 125.835C23.0384 108.755 25.8692 91.7775 31.5761 75.6846C31.5761 75.6846 16.7596 108.032 18.6501 129.745L18.8763 133.6C6.31516 135.405 0 137.282 0 137.282L61.3841 138.054L61.9277 139.112C53.854 140.187 45.4456 141.463 36.7024 142.941L206.382 140.807C206.382 140.807 205.057 140.413 202.423 139.815L263.687 139.044Z" fill="#3F3D56"/>
<path d="M48.5739 151C48.5739 151 88.9727 145.053 114.002 151H48.5739Z" fill="#3F3D56"/>
<path d="M203.143 145.918C203.143 145.918 227.071 139.829 241.895 145.918H203.143Z" fill="#3F3D56"/>
<path d="M127.239 103.242C127.239 103.242 120.349 111.304 121.797 111.83C123.245 112.357 130.006 106.596 129.572 104.56L127.239 103.242Z" fill="#FFB9B9"/>
<path d="M167.794 110.713C167.794 110.713 171.534 120.648 169.994 120.648C168.454 120.648 164.053 112.921 165.153 111.155L167.794 110.713Z" fill="#FFB9B9"/>
<path d="M170.121 50.5823C169.503 49.706 168.743 48.9402 168.092 48.0892C166.589 46.1271 166.069 43.5127 164.052 42.0081C162.057 40.5193 158.891 39.0539 156.394 39.1713C153.103 39.326 150.492 41.8873 148.224 44.284C146.49 46.1155 144.756 47.9471 143.023 49.7786C141.769 51.1036 140.468 52.5103 140.016 54.2803C139.582 55.9815 140.006 57.8091 140.801 59.3735C141.627 60.9604 142.787 62.3488 144.199 63.4433C145.94 61.0383 148.379 57.7174 148.379 57.7174L148.947 65.9776C151.896 66.9583 155.065 67.1512 158.173 66.9343L159.094 63.5476L160.06 66.7468C163.774 66.2527 167.506 64.9661 169.805 62.0581C172.347 58.8431 172.482 53.933 170.121 50.5823Z" fill="#2F2E41"/>
<path d="M155.911 57.9515C159.678 57.9515 162.732 54.8875 162.732 51.1079C162.732 47.3283 159.678 44.2643 155.911 44.2643C152.144 44.2643 149.09 47.3283 149.09 51.1079C149.09 54.8875 152.144 57.9515 155.911 57.9515Z" fill="#FFB9B9"/>
<path d="M151.51 54.4192C151.51 54.4192 151.95 59.7175 149.09 60.159C146.229 60.6005 143.149 60.159 143.149 61.9251C143.149 63.6912 145.349 79.8067 145.349 79.8067L150.85 79.3652L158.552 71.8593L162.732 63.6912C162.732 63.6912 157.671 61.4835 159.872 54.8607L151.51 54.4192Z" fill="#FFB9B9"/>
<path d="M148.21 76.7161L146.009 70.7556L146.449 62.5874C146.449 62.5874 151.281 61.9251 151.176 57.9514L147.55 59.4968L139.188 60.8213V68.548C139.188 68.548 136.327 73.1839 139.628 77.8199L141.168 87.5334L157.011 86.4296L162.072 79.8068L168.454 67.2234L161.852 62.3666L162.733 61.0421L159.365 58.839L159.872 63.0289L158.332 65.6781C158.332 65.6781 151.29 67.0026 148.21 76.7161Z" fill="white"/>
<path d="M140.508 61.2628L139.188 60.8213C139.188 60.8213 136.547 61.9251 136.547 65.4573C136.547 68.9895 125.985 103.87 125.985 103.87L130.826 105.194L137.428 89.0787L141.388 75.6123L140.508 61.2628Z" fill="white"/>
<path d="M166.693 67.2234H168.454C168.454 67.2234 169.554 66.3404 169.334 72.7424C169.114 79.1445 169.994 112.921 169.994 112.921L163.613 112.48L162.072 76.0539L166.693 67.2234Z" fill="white"/>
<path d="M162.369 113.063L150.343 112.272L147.421 112.08L140.766 111.642C140.665 111.283 140.577 110.972 140.507 110.712C138.307 102.545 140.729 91.0661 140.729 91.0661C140.729 91.0661 140.287 89.9625 140.729 89.2995C141.168 88.6365 140.948 88.8589 140.068 87.9756C139.187 87.0923 140.068 87.9756 140.507 86.872C140.948 85.7663 140.507 86.872 140.507 85.9888C140.53 85.5074 140.373 85.0347 140.068 84.6627C140.249 84.5195 140.447 84.3982 140.656 84.3015C144.843 82.2881 158.283 84.7662 158.283 84.7662C158.283 84.7662 158.274 84.7772 158.258 84.7993C158.153 84.9535 157.753 85.6275 158.331 86.209C158.992 86.872 157.892 86.872 157.672 87.5329C157.45 88.1959 157.672 87.5329 157.892 88.1959C158.111 88.8589 157.45 89.74 157.45 89.74C163.115 94.5156 163.414 104.501 162.369 113.063Z" fill="#2F2E41"/>
<path d="M150.343 112.272L147.421 112.08C147.917 109.818 148.209 108.505 148.209 108.505L150.343 112.272Z" fill="#2F2E41"/>
<path d="M148.54 46.1407C148.54 46.1407 154.041 52.7635 165.043 49.0106L161.962 43.4916L154.701 41.2839L148.54 46.1407Z" fill="#2F2E41"/>
<path d="M97.6967 143.542C97.6967 143.542 100.805 146.168 102.442 146.004C104.078 145.84 107.187 145.84 105.878 147.645C104.569 149.451 99.1692 150.436 96.8786 150.6C94.5879 150.764 89.5158 150.928 89.843 149.943C90.1702 148.959 90.4975 144.362 91.8064 144.034C93.1154 143.706 97.6967 143.542 97.6967 143.542Z" fill="#575A89"/>
<path d="M79.8541 140.963C79.8541 140.963 82.1449 144.331 83.7648 144.614C85.3848 144.897 88.3792 145.735 86.6347 147.122C84.8902 148.508 79.4256 148.001 77.1752 147.541C74.9249 147.082 69.9953 145.872 70.5744 145.012C71.1534 144.151 72.6999 139.812 74.0486 139.849C75.3973 139.886 79.8541 140.963 79.8541 140.963Z" fill="#575A89"/>
<path d="M99.5177 92.7953C99.5177 92.7953 101.624 107.264 101.133 109.89C100.642 112.517 100.315 116.621 100.315 116.621C100.315 116.621 100.642 120.068 100.315 121.709C99.9873 123.351 98.0239 138.945 98.0239 139.274C98.0239 139.602 98.3512 140.587 98.0239 141.408C97.6967 142.228 97.0422 141.572 98.0239 142.885C99.0056 144.198 98.3512 144.526 98.1875 144.526C98.0239 144.526 91.6428 145.183 91.3156 144.526C90.9883 143.87 91.4792 143.706 91.3156 142.885C91.1519 142.064 90.9883 141.9 90.6611 141.736C90.3338 141.572 89.6794 141.9 90.1702 141.079C90.6611 140.258 91.8064 139.274 91.4792 138.781C91.1519 138.289 91.6428 134.677 91.6428 134.677C91.6428 134.677 91.97 126.634 92.1336 121.709C92.2973 116.785 90.6611 111.696 90.6611 111.696C90.4573 115.725 88.9657 119.582 86.407 122.694C82.1529 127.783 80.0259 137.304 80.0259 137.304C80.0259 137.304 79.0442 138.781 79.535 140.094C80.0259 141.408 81.4984 140.587 80.0259 141.408C78.5533 142.228 73.4812 141.079 72.9903 140.587C72.4994 140.094 73.6448 139.438 73.3175 138.125C72.9903 136.811 71.6814 137.14 72.8267 136.483C73.972 135.826 74.2992 135.991 74.2992 135.334C74.2992 134.677 77.2444 120.396 81.8257 116.292L82.1529 101.354C82.1529 101.354 78.0625 90.8486 82.3165 89.8637C86.5706 88.8788 99.5177 92.7953 99.5177 92.7953Z" fill="#2F2E41"/>
<path d="M96.5513 53.9145C96.5513 53.9145 93.7698 60.8089 94.4243 61.7938C95.0787 62.7787 86.407 58.5107 86.407 58.5107C86.407 58.5107 89.1885 51.6163 89.1885 50.7956C89.1885 49.9748 96.5513 53.9145 96.5513 53.9145Z" fill="#FFB9B9"/>
<path d="M94.5061 55.638C97.8496 55.638 100.56 52.9187 100.56 49.5644C100.56 46.21 97.8496 43.4907 94.5061 43.4907C91.1627 43.4907 88.4523 46.21 88.4523 49.5644C88.4523 52.9187 91.1627 55.638 94.5061 55.638Z" fill="#FFB9B9"/>
<path d="M86.4069 55.72C86.4069 55.72 90.661 55.2276 92.788 57.854C94.9151 60.4804 95.2423 61.1371 95.2423 61.1371C95.2423 61.1371 100.314 69.3447 99.3328 73.4485C99.0935 73.819 98.875 74.2026 98.6783 74.5975C98.351 75.2541 98.351 84.4467 98.6783 85.924C99.0055 87.4014 99.3328 87.8939 99.0055 90.0278C98.6783 92.1618 101.623 95.609 98.1874 96.2656C94.7514 96.9222 92.1335 96.4298 90.9882 94.9524C89.8429 93.4751 90.8246 92.4901 87.225 92.4901C83.6254 92.4901 81.3347 90.0278 81.3347 90.0278C81.3347 90.0278 83.1345 88.058 82.4801 87.7297C81.8256 87.4014 82.4801 86.5807 82.8073 85.7599C83.1345 84.9391 83.1345 84.2825 82.6437 84.2825C82.1528 84.2825 82.4801 83.9542 82.8073 83.1335C83.1345 82.3127 77.0807 68.1956 80.6803 64.0918C84.2799 59.988 86.0797 57.6898 86.0797 57.6898C86.0797 57.6898 85.4252 55.2276 86.4069 55.72Z" fill="#2F2E41"/>
<path d="M95.7332 71.3146V78.5373L100.969 95.9374C100.969 95.9374 104.405 104.966 100.969 104.966C97.533 104.966 97.7171 96.3486 97.7171 96.3486L90.3338 83.2977C90.3338 83.2977 87.3887 72.9561 87.7159 72.1353C88.0432 71.3146 95.7332 71.3146 95.7332 71.3146Z" fill="#FFB9B9"/>
<path d="M92.9517 60.6446C92.9517 60.6446 97.8603 62.6144 96.5513 67.8673C95.2424 73.1202 96.5513 72.956 96.5513 72.956C96.5513 72.956 89.843 72.2994 87.7159 73.7768L87.2251 71.8069C87.2251 71.8069 85.2617 60.4804 92.9517 60.6446Z" fill="#2F2E41"/>
<path d="M96.5733 45.0048C96.9511 45.1393 97.3563 45.1773 97.7524 45.1155C98.1485 45.0537 98.523 44.8939 98.8422 44.6506C99.459 44.1408 99.7206 43.2001 99.3578 42.4858C99.0445 41.869 98.3744 41.5305 97.7318 41.2782C96.3144 40.7219 94.8213 40.3837 93.3031 40.2749C92.5793 40.2233 91.8192 40.2314 91.1733 40.5632C90.8537 40.7273 90.5761 40.9642 90.2596 41.1342C89.6776 41.4468 89.0003 41.5164 88.3713 41.7176C87.7278 41.9282 87.137 42.275 86.6387 42.7345C86.1404 43.1941 85.7462 43.7556 85.483 44.3812C85.312 44.8061 85.1925 45.25 85.1272 45.7035C84.9391 46.945 85.0705 48.2142 85.509 49.3904C86.2065 51.2535 87.6693 52.8822 87.7518 54.8706C88.6472 54.2189 88.9792 53.0427 89.6967 52.198C90.2304 51.5737 90.9595 51.1494 91.7647 50.9946C91.9876 50.9809 92.2018 50.9026 92.3811 50.7691C92.5061 50.6194 92.5843 50.4361 92.6063 50.2421L93.2189 47.3402C93.3436 46.7496 93.5011 46.1057 93.985 45.7468C94.2862 45.5535 94.628 45.4327 94.9835 45.3939C95.8283 45.2458 96.6838 45.1675 97.5413 45.1599" fill="#2F2E41"/>
</g>
<defs>
<clipPath id="clip0">
<rect width="263.687" height="151" fill="white"/>
</clipPath>
</defs>
</svg>
